<svg id="e1jyavsrlj6x1" xmlns="http://www.w3.org/2000/svg" xmlns:xlink="http://www.w3.org/1999/xlink" viewBox="0 0 1050 806" shape-rendering="geometricPrecision" text-rendering="geometricPrecision"><style><![CDATA[#e1jyavsrlj6x4_ts {animation: e1jyavsrlj6x4_ts__ts 2000ms linear infinite normal forwards}@keyframes e1jyavsrlj6x4_ts__ts { 0% {transform: translate(524.994754px,340.514950px) scale(1,1);animation-timing-function: cubic-bezier(0.445000,0.050000,0.550000,0.950000)} 50% {transform: translate(524.994754px,340.514950px) scale(1,1.500000);animation-timing-function: cubic-bezier(0.445000,0.050000,0.550000,0.950000)} 100% {transform: translate(524.994754px,340.514950px) scale(1,1)} }#e1jyavsrlj6x5_tr {animation: e1jyavsrlj6x5_tr__tr 2000ms linear infinite normal forwards}@keyframes e1jyavsrlj6x5_tr__tr { 0% {transform: translate(118.791866px,461.086470px) rotate(1deg);animation-timing-function: cubic-bezier(0.420000,0,0.580000,1)} 50% {transform: translate(118.791866px,461.086470px) rotate(5deg);animation-timing-function: cubic-bezier(0.420000,0,0.580000,1)} 100% {transform: translate(118.791866px,461.086470px) rotate(1deg)} }#e1jyavsrlj6x23_tr {animation: e1jyavsrlj6x23_tr__tr 2000ms linear infinite normal forwards}@keyframes e1jyavsrlj6x23_tr__tr { 0% {transform: translate(171.400044px,322.768052px) rotate(0deg);animation-timing-function: cubic-bezier(0.420000,0,0.580000,1)} 50% {transform: translate(171.400044px,322.768052px) rotate(6deg);animation-timing-function: cubic-bezier(0.420000,0,0.580000,1)} 100% {transform: translate(171.400044px,322.768052px) rotate(0deg)} }#e1jyavsrlj6x40_to {animation: e1jyavsrlj6x40_to__to 2000ms linear infinite normal forwards}@keyframes e1jyavsrlj6x40_to__to { 0% {transform: translate(754.579999px,106.089157px);animation-timing-function: cubic-bezier(0.390000,0.575000,0.565000,1)} 50% {transform: translate(754.579999px,187.909157px)} 100% {transform: translate(754.579999px,187.909157px)} }#e1jyavsrlj6x45_to {animation: e1jyavsrlj6x45_to__to 2000ms linear infinite normal forwards}@keyframes e1jyavsrlj6x45_to__to { 0% {transform: translate(621.534973px,123.360000px)} 50% {transform: translate(621.534973px,123.360000px);animation-timing-function: cubic-bezier(0.390000,0.575000,0.565000,1)} 100% {transform: translate(621.534973px,250.360000px)} }#e1jyavsrlj6x45 {animation: e1jyavsrlj6x45_c_o 2000ms linear infinite normal forwards}@keyframes e1jyavsrlj6x45_c_o { 0% {opacity: 0.040000;animation-timing-function: cubic-bezier(0.390000,0.575000,0.565000,1)} 50% {opacity: 1} 100% {opacity: 1} }#e1jyavsrlj6x52_to {animation: e1jyavsrlj6x52_to__to 2000ms linear infinite normal forwards}@keyframes e1jyavsrlj6x52_to__to { 0% {transform: translate(858.000015px,123.860000px)} 5% {transform: translate(858.000015px,123.860000px);animation-timing-function: cubic-bezier(0.470000,0,0.745000,0.715000)} 50% {transform: translate(858.000015px,250.860000px);animation-timing-function: cubic-bezier(0.470000,0,0.745000,0.715000)} 100% {transform: translate(858.000015px,123.860000px)} }#e1jyavsrlj6x52 {animation: e1jyavsrlj6x52_c_o 2000ms linear infinite normal forwards}@keyframes e1jyavsrlj6x52_c_o { 0% {opacity: 0.500000} 5% {opacity: 0.500000;animation-timing-function: cubic-bezier(0.390000,0.575000,0.565000,1)} 50% {opacity: 1} 100% {opacity: 1} }]]></style><defs><linearGradient id="e1jyavsrlj6x39-fill" x1="756.960000" y1="364.350000" x2="756.960000" y2="20.380000" spreadMethod="pad" gradientUnits="userSpaceOnUse"><stop id="e1jyavsrlj6x39-fill-0" offset="0%" stop-color="rgba(128,128,128,0.25)"/><stop id="e1jyavsrlj6x39-fill-1" offset="54%" stop-color="rgba(128,128,128,0.12)"/><stop id="e1jyavsrlj6x39-fill-2" offset="100%" stop-color="rgba(128,128,128,0.1)"/></linearGradient><linearGradient id="e1jyavsrlj6x67-fill" x1="13752.600000" y1="11663.400000" x2="13752.600000" y2="10189.100000" spreadMethod="pad" gradientUnits="userSpaceOnUse"><stop id="e1jyavsrlj6x67-fill-0" offset="0%" stop-color="rgba(128,128,128,0.25)"/><stop id="e1jyavsrlj6x67-fill-1" offset="54%" stop-color="rgba(128,128,128,0.12)"/><stop id="e1jyavsrlj6x67-fill-2" offset="100%" stop-color="rgba(128,128,128,0.1)"/></linearGradient><linearGradient id="e1jyavsrlj6x127-fill" x1="-175148" y1="309930" x2="-175148" y2="100997" spreadMethod="pad" gradientUnits="userSpaceOnUse"><stop id="e1jyavsrlj6x127-fill-0" offset="0%" stop-color="rgba(128,128,128,0.25)"/><stop id="e1jyavsrlj6x127-fill-1" offset="54%" stop-color="rgba(128,128,128,0.12)"/><stop id="e1jyavsrlj6x127-fill-2" offset="100%" stop-color="rgba(128,128,128,0.1)"/></linearGradient><linearGradient id="e1jyavsrlj6x144-fill" x1="276647" y1="183663" x2="276647" y2="132046" spreadMethod="pad" gradientUnits="userSpaceOnUse"><stop id="e1jyavsrlj6x144-fill-0" offset="0%" stop-color="rgba(128,128,128,0.25)"/><stop id="e1jyavsrlj6x144-fill-1" offset="54%" stop-color="rgba(128,128,128,0.12)"/><stop id="e1jyavsrlj6x144-fill-2" offset="100%" stop-color="rgba(128,128,128,0.1)"/></linearGradient><linearGradient id="e1jyavsrlj6x150-fill" x1="136808" y1="120012" x2="136808" y2="79288.700000" spreadMethod="pad" gradientUnits="userSpaceOnUse"><stop id="e1jyavsrlj6x150-fill-0" offset="0%" stop-color="rgba(128,128,128,0.25)"/><stop id="e1jyavsrlj6x150-fill-1" offset="54%" stop-color="rgba(128,128,128,0.12)"/><stop id="e1jyavsrlj6x150-fill-2" offset="100%" stop-color="rgba(128,128,128,0.1)"/></linearGradient></defs><g id="e1jyavsrlj6x2" clip-path="url(#e1jyavsrlj6x154)"><g id="e1jyavsrlj6x3"><g id="e1jyavsrlj6x4_ts" transform="translate(524.994754,340.514950) scale(1,1)"><path id="e1jyavsrlj6x4" d="M60.584417,484.797219C96.313682,537.872740,82.432888,615.396019,59.732527,677.498945C52.125652,698.293590,43.536597,720.282522,46.703623,742.575880C50.622317,769.833725,71.448519,789.773635,93.317034,800.334879C133.175459,819.595685,180.881294,815.005876,217.512560,788.380300C249.162775,765.372712,271.833069,727.963427,304.024485,706.009621C357.904016,669.267731,426.476142,683.142537,484.975923,708.456738C526.367750,726.359335,571.618137,749.647932,612.739364,730.937435C641.673554,717.765152,661.677933,685.718450,672.582124,651.739813C677.843797,635.347638,681.662268,617.585545,691.714569,604.577184C697.727909,596.849444,705.485119,591.358065,713.472839,586.733130C786.404637,544.488154,878.508969,567.109355,949.346120,520.262861C997.182244,488.649380,1027.810191,428.935028,1041.370274,366.691598C1054.930357,304.448168,1053.396955,239.183894,1049.909218,175.090490C1047.463793,129.531952,1043.074054,80.905736,1018.158780,45.744520C991.800304,8.557712,946.569961,-5.281967,905.689268,1.790086C864.808575,8.862138,827.746353,34.059241,795.144025,63.729078C754.403644,100.822228,716.609799,147.001327,666.588828,162.082128C632.513232,172.315529,596.683745,166.765607,561.545792,164.775128C502.805477,161.531819,444.045118,168.744376,385.625515,176.624329C329.701449,184.176438,273.376493,192.489613,220.098296,213.740897C182.404673,228.728028,152.197660,256.032708,116.598684,275.059340C93.397212,287.493976,68.091071,290.924624,46.112311,306.766490C19.052279,326.273178,-5.762803,360.204980,1.172583,399.909170C7.767213,437.693133,41.622350,456.626096,60.584417,484.797219Z" transform="translate(-524.989441,-346.807838)" opacity="0.1" fill="rgb(19,18,18)" stroke="none" stroke-width="1"/></g><g id="e1jyavsrlj6x5_tr" transform="translate(118.791866,461.086470) rotate(1)"><g id="e1jyavsrlj6x5" transform="translate(-134.252716,-439.500854)"><path id="e1jyavsrlj6x6" d="M189.780000,612.210000C189.780000,612.210000,186.480000,514.450000,133.590000,459.210000C111.390000,436.030000,96.810000,406.590000,92.950000,374.730000C91.145600,359.610000,90.730500,344.356000,91.710000,329.160000" fill="none" stroke="rgb(83,84,97)" stroke-width="2" stroke-miterlimit="10"/><path id="e1jyavsrlj6x7" d="M58.580000,294.180000C62.200000,305.100000,92.460000,330.180000,92.460000,330.180000C92.460000,330.180000,101.730000,291.970000,98.110000,281.060000C96.371500,275.818000,92.621800,271.481000,87.685900,269.004000C82.749900,266.527000,77.032000,266.112000,71.790000,267.850000C66.548000,269.589000,62.211300,273.338000,59.734000,278.274000C57.256600,283.210000,56.841500,288.928000,58.580000,294.170000L58.580000,294.180000Z" fill="rgb(255,255,255)" stroke="none" stroke-width="1"/><path id="e1jyavsrlj6x8" d="M46,365.470000C55,372.670000,94,377.290000,94,377.290000C94,377.290000,81,340.180000,72,332.990000C67.670400,329.808000,62.278000,328.422000,56.950600,329.124000C51.623200,329.826000,46.773400,332.560000,43.415400,336.755000C40.057400,340.950000,38.451300,346.280000,38.933000,351.632000C39.414700,356.984000,41.946900,361.942000,46,365.470000L46,365.470000Z" fill="rgb(255,255,255)" stroke="none" stroke-width="1"/><path id="e1jyavsrlj6x9" d="M81.650000,468.320000C93.030000,470,129.060000,454.320000,129.060000,454.320000C129.060000,454.320000,99.120000,428.840000,87.740000,427.160000C82.276600,426.352000,76.716000,427.748000,72.281700,431.040000C67.847500,434.333000,64.902600,439.252000,64.095000,444.715000C63.287400,450.178000,64.683300,455.739000,67.975500,460.173000C71.267700,464.608000,76.186500,467.552000,81.650000,468.360000L81.650000,468.320000Z" fill="rgb(255,255,255)" stroke="none" stroke-width="1"/><path id="e1jyavsrlj6x10" d="M126.170000,540.060000C137.100000,543.640000,175.270000,534.240000,175.270000,534.240000C175.270000,534.240000,150.060000,504.070000,139.130000,500.490000C133.883000,498.766000,128.165000,499.197000,123.236000,501.689000C118.307000,504.180000,114.569000,508.528000,112.845000,513.775000C111.121000,519.022000,111.552000,524.740000,114.044000,529.669000C116.535000,534.598000,120.883000,538.336000,126.130000,540.060000L126.170000,540.060000Z" fill="rgb(255,255,255)" stroke="none" stroke-width="1"/><path id="e1jyavsrlj6x11" d="M136.170000,365.640000C130.860000,375.840000,97,395.820000,97,395.820000C97,395.820000,93.920000,356.630000,99.230000,346.420000C100.492000,343.994000,102.219000,341.841000,104.314000,340.083000C106.408000,338.325000,108.828000,336.997000,111.435000,336.174000C114.042000,335.352000,116.786000,335.051000,119.510000,335.288000C122.234000,335.526000,124.884000,336.298000,127.310000,337.560000C129.736000,338.822000,131.889000,340.549000,133.647000,342.644000C135.405000,344.738000,136.733000,347.158000,137.556000,349.765000C138.378000,352.373000,138.679000,355.116000,138.442000,357.840000C138.204000,360.564000,137.432000,363.214000,136.170000,365.640000Z" transform="matrix(1 0 0 1 0 -1)" fill="rgb(255,255,255)" stroke="none" stroke-width="1"/><path id="e1jyavsrlj6x12" d="M187.180000,450.200000C179.060000,458.350000,140.780000,467.270000,140.780000,467.270000C140.780000,467.270000,149.570000,428.950000,157.680000,420.800000C159.610000,418.863000,161.902000,417.325000,164.426000,416.274000C166.950000,415.223000,169.657000,414.679000,172.391000,414.674000C175.125000,414.669000,177.834000,415.203000,180.362000,416.244000C182.890000,417.286000,185.188000,418.815000,187.125000,420.745000C189.062000,422.675000,190.600000,424.967000,191.651000,427.491000C192.702000,430.015000,193.246000,432.722000,193.251000,435.456000C193.256000,438.190000,192.722000,440.899000,191.681000,443.427000C190.639000,445.955000,189.110000,448.253000,187.180000,450.190000L187.180000,450.200000Z" fill="rgb(255,255,255)" stroke="none" stroke-width="1"/><path id="e1jyavsrlj6x13" d="M225.480000,539.190000C218.860000,548.590000,182.630000,563.860000,182.630000,563.860000C182.630000,563.860000,184.810000,524.610000,191.440000,515.200000C192.974000,512.867000,194.961000,510.867000,197.284000,509.317000C199.607000,507.768000,202.217000,506.702000,204.961000,506.182000C207.704000,505.663000,210.524000,505.700000,213.252000,506.292000C215.980000,506.884000,218.562000,508.019000,220.843000,509.629000C223.124000,511.239000,225.058000,513.292000,226.529000,515.664000C228.001000,518.037000,228.980000,520.681000,229.409000,523.440000C229.838000,526.199000,229.708000,529.016000,229.026000,531.723000C228.344000,534.431000,227.125000,536.973000,225.440000,539.200000L225.480000,539.190000Z" fill="rgb(255,255,255)" stroke="none" stroke-width="1"/></g></g><g id="e1jyavsrlj6x14" transform="matrix(1 0 0 1 -1.65560303000007 -14.29403319500034)"><path id="e1jyavsrlj6x15" d="M654.560000,545.830000C654.560000,545.830000,638.680000,540.450000,631.040000,554.440000C629.024000,558.233000,627.999000,562.474000,628.058000,566.769000C628.118000,571.064000,629.260000,575.274000,631.380000,579.010000C636.380000,588.080000,646.740000,599.860000,666.380000,598.810000C683,597.920000,688.480000,585.240000,690,573.440000C690.575000,569.016000,690.005000,564.518000,688.344000,560.377000C686.682000,556.237000,683.986000,552.592000,680.513000,549.792000C677.039000,546.992000,672.905000,545.131000,668.506000,544.386000C664.108000,543.642000,659.591000,544.039000,655.390000,545.540000L654.560000,545.830000Z" fill="rgb(255,255,255)" stroke="none" stroke-width="1"/><path id="e1jyavsrlj6x16" d="M634.740000,580.270000C632.620000,576.534000,631.478000,572.324000,631.418000,568.029000C631.359000,563.734000,632.384000,559.493000,634.400000,555.700000C642.040000,541.700000,657.920000,547.090000,657.920000,547.090000L658.730000,546.800000C664.785000,544.609000,671.440000,544.759000,677.390000,547.220000C674.106000,545.265000,670.430000,544.062000,666.626000,543.699000C662.822000,543.336000,658.984000,543.821000,655.390000,545.120000L654.580000,545.410000C654.580000,545.410000,638.700000,540.030000,631.060000,554.020000C629.044000,557.813000,628.019000,562.054000,628.078000,566.349000C628.138000,570.644000,629.280000,574.854000,631.400000,578.590000C634.710000,584.590000,640.320000,591.700000,649.400000,595.590000C643.204000,591.921000,638.133000,586.622000,634.740000,580.270000Z" opacity="0.1" fill="rgb(255,255,255)" stroke="none" stroke-width="1"/><path id="e1jyavsrlj6x17" d="M646.360000,552.560000C646.360000,552.560000,652.250000,557.190000,666.540000,552.560000Z" opacity="0.2" fill="rgb(255,255,255)" stroke="none" stroke-width="1"/><path id="e1jyavsrlj6x18" d="M645.100000,518.920000C645.100000,518.920000,655.190000,546.250000,654.350000,553.400000L662.350000,552.560000C662.350000,552.560000,648.890000,528.560000,652.260000,518.920000L645.100000,518.920000Z" fill="rgb(255,255,255)" stroke="none" stroke-width="1"/><path id="e1jyavsrlj6x19" d="M645.100000,518.920000C645.100000,518.920000,655.190000,546.250000,654.350000,553.400000L662.350000,552.560000C662.350000,552.560000,648.890000,528.560000,652.260000,518.920000L645.100000,518.920000Z" opacity="0.2" fill="rgb(255,255,255)" stroke="none" stroke-width="1"/><path id="e1jyavsrlj6x20" d="M686.290000,521.200000C686.290000,521.200000,670.410000,513.080000,663.290000,519.790000C656.170000,526.500000,655.090000,543.650000,655.090000,543.650000C655.090000,543.650000,681,547.210000,686.290000,521.200000Z" fill="rgb(255,255,255)" stroke="none" stroke-width="1"/><path id="e1jyavsrlj6x21" d="M655.100000,543.650000C655.100000,543.650000,659.270000,523.740000,686.290000,521.200000" fill="rgb(255,255,255)" stroke="rgb(99,198,255)" stroke-width="1" stroke-miterlimit="10"/><path id="e1jyavsrlj6x22" d="M686.290000,521.200000C686.290000,521.200000,670.410000,513.080000,663.290000,519.790000C656.170000,526.500000,655.090000,543.650000,655.090000,543.650000C655.090000,543.650000,681,547.210000,686.290000,521.200000Z" opacity="0.1" fill="rgb(255,255,255)" stroke="none" stroke-width="1"/></g><g id="e1jyavsrlj6x23_tr" transform="translate(171.400044,322.768052) rotate(0)"><g id="e1jyavsrlj6x23" transform="translate(-177.369370,-328.529800)"><path id="e1jyavsrlj6x24" d="M198.630000,424.510000C198.630000,424.510000,201.870000,371.650000,176.200000,339.170000C165.345000,325.616000,159.180000,308.906000,158.630000,291.550000C158.437000,283.306000,158.999000,275.061000,160.310000,266.920000" fill="none" stroke="rgb(83,84,97)" stroke-width="2" stroke-miterlimit="10"/><path id="e1jyavsrlj6x25" d="M144.260000,246.360000C145.650000,252.430000,160.670000,267.510000,160.670000,267.510000C160.670000,267.510000,167.670000,247.390000,166.240000,241.330000C165.912000,239.885000,165.302000,238.520000,164.446000,237.311000C163.590000,236.102000,162.504000,235.073000,161.250000,234.284000C159.997000,233.495000,158.600000,232.960000,157.140000,232.711000C155.680000,232.461000,154.185000,232.502000,152.740000,232.830000C151.295000,233.158000,149.930000,233.768000,148.721000,234.624000C147.512000,235.480000,146.483000,236.566000,145.694000,237.820000C144.905000,239.073000,144.370000,240.470000,144.121000,241.930000C143.871000,243.390000,143.912000,244.885000,144.240000,246.330000L144.260000,246.360000Z" fill="rgb(99,198,255)" stroke="none" stroke-width="1"/><path id="e1jyavsrlj6x26" d="M133.800000,284.140000C138.270000,288.480000,159.070000,292.980000,159.070000,292.980000C159.070000,292.980000,153.980000,272.310000,149.510000,267.980000C148.448000,266.948000,147.194000,266.136000,145.818000,265.589000C144.442000,265.043000,142.973000,264.772000,141.492000,264.794000C140.012000,264.815000,138.551000,265.128000,137.191000,265.714000C135.832000,266.300000,134.602000,267.148000,133.570000,268.210000C132.538000,269.272000,131.726000,270.526000,131.179000,271.902000C130.633000,273.278000,130.362000,274.748000,130.384000,276.228000C130.405000,277.708000,130.718000,279.169000,131.304000,280.529000C131.890000,281.888000,132.738000,283.119000,133.800000,284.150000L133.800000,284.140000Z" fill="rgb(99,198,255)" stroke="none" stroke-width="1"/><path id="e1jyavsrlj6x27" d="M147.750000,341.410000C153.750000,342.900000,174.020000,336.280000,174.020000,336.280000C174.020000,336.280000,159.190000,321.010000,153.150000,319.520000C151.713000,319.165000,150.220000,319.097000,148.756000,319.320000C147.292000,319.542000,145.887000,320.051000,144.620000,320.817000C142.061000,322.363000,140.221000,324.862000,139.505000,327.765000C138.789000,330.668000,139.255000,333.736000,140.802000,336.295000C142.348000,338.854000,144.847000,340.694000,147.750000,341.410000L147.750000,341.410000Z" fill="rgb(99,198,255)" stroke="none" stroke-width="1"/><path id="e1jyavsrlj6x28" d="M168.060000,382.350000C173.770000,384.840000,194.820000,381.730000,194.820000,381.730000C194.820000,381.730000,182.820000,364.170000,177.080000,361.730000C175.718000,361.103000,174.244000,360.754000,172.746000,360.704000C171.247000,360.653000,169.753000,360.902000,168.352000,361.437000C166.951000,361.971000,165.670000,362.779000,164.586000,363.815000C163.501000,364.850000,162.634000,366.091000,162.035000,367.466000C161.436000,368.841000,161.117000,370.322000,161.098000,371.821000C161.078000,373.320000,161.358000,374.809000,161.921000,376.198000C162.484000,377.588000,163.319000,378.852000,164.377000,379.915000C165.434000,380.978000,166.693000,381.820000,168.080000,382.390000L168.060000,382.350000Z" fill="rgb(99,198,255)" stroke="none" stroke-width="1"/><path id="e1jyavsrlj6x29" d="M182.410000,288.870000C179.030000,294.100000,159.750000,303.120000,159.750000,303.120000C159.750000,303.120000,160.100000,281.840000,163.490000,276.610000C165.116000,274.101000,167.672000,272.341000,170.595000,271.716000C173.519000,271.092000,176.571000,271.654000,179.080000,273.280000C181.589000,274.906000,183.349000,277.462000,183.974000,280.385000C184.598000,283.309000,184.036000,286.361000,182.410000,288.870000L182.410000,288.870000Z" fill="rgb(99,198,255)" stroke="none" stroke-width="1"/><path id="e1jyavsrlj6x30" d="M205.560000,337.060000C200.770000,341.060000,179.670000,343.880000,179.670000,343.880000C179.670000,343.880000,186.370000,323.680000,191.170000,319.700000C193.472000,317.792000,196.438000,316.876000,199.415000,317.155000C202.392000,317.433000,205.137000,318.883000,207.045000,321.185000C208.953000,323.487000,209.869000,326.453000,209.590000,329.430000C209.312000,332.407000,207.862000,335.152000,205.560000,337.060000Z" fill="rgb(99,198,255)" stroke="none" stroke-width="1"/><path id="e1jyavsrlj6x31" d="M221.630000,386.990000C217.580000,391.720000,197.270000,398.090000,197.270000,398.090000C197.270000,398.090000,200.460000,377.090000,204.520000,372.320000C205.484000,371.196000,206.660000,370.273000,207.981000,369.603000C209.301000,368.933000,210.741000,368.530000,212.217000,368.417000C213.694000,368.304000,215.178000,368.482000,216.586000,368.943000C217.993000,369.403000,219.296000,370.136000,220.420000,371.100000C221.544000,372.064000,222.467000,373.240000,223.137000,374.560000C223.807000,375.881000,224.210000,377.321000,224.323000,378.797000C224.436000,380.274000,224.258000,381.758000,223.797000,383.166000C223.337000,384.573000,222.604000,385.876000,221.640000,387L221.630000,386.990000Z" fill="rgb(99,198,255)" stroke="none" stroke-width="1"/><path id="e1jyavsrlj6x32" d="M144.260000,246.360000C145.650000,252.430000,160.670000,267.510000,160.670000,267.510000C160.670000,267.510000,167.670000,247.390000,166.240000,241.330000C165.912000,239.885000,165.302000,238.520000,164.446000,237.311000C163.590000,236.102000,162.504000,235.073000,161.250000,234.284000C159.997000,233.495000,158.600000,232.960000,157.140000,232.711000C155.680000,232.461000,154.185000,232.502000,152.740000,232.830000C151.295000,233.158000,149.930000,233.768000,148.721000,234.624000C147.512000,235.480000,146.483000,236.566000,145.694000,237.820000C144.905000,239.073000,144.370000,240.470000,144.121000,241.930000C143.871000,243.390000,143.912000,244.885000,144.240000,246.330000L144.260000,246.360000Z" opacity="0.5" fill="rgb(231,237,239)" stroke="none" stroke-width="1" stroke-opacity="0"/><path id="e1jyavsrlj6x33" d="M133.800000,284.140000C138.270000,288.480000,159.070000,292.980000,159.070000,292.980000C159.070000,292.980000,153.980000,272.310000,149.510000,267.980000C148.448000,266.948000,147.194000,266.136000,145.818000,265.589000C144.442000,265.043000,142.973000,264.772000,141.492000,264.794000C140.012000,264.815000,138.551000,265.128000,137.191000,265.714000C135.832000,266.300000,134.602000,267.148000,133.570000,268.210000C132.538000,269.272000,131.726000,270.526000,131.179000,271.902000C130.633000,273.278000,130.362000,274.748000,130.384000,276.228000C130.405000,277.708000,130.718000,279.169000,131.304000,280.529000C131.890000,281.888000,132.738000,283.119000,133.800000,284.150000L133.800000,284.140000Z" opacity="0.5" fill="rgb(231,237,239)" stroke="none" stroke-width="1"/><path id="e1jyavsrlj6x34" d="M147.750000,341.410000C153.750000,342.900000,174.020000,336.280000,174.020000,336.280000C174.020000,336.280000,159.190000,321.010000,153.150000,319.520000C151.713000,319.165000,150.220000,319.097000,148.756000,319.320000C147.292000,319.542000,145.887000,320.051000,144.620000,320.817000C142.061000,322.363000,140.221000,324.862000,139.505000,327.765000C138.789000,330.668000,139.255000,333.736000,140.802000,336.295000C142.348000,338.854000,144.847000,340.694000,147.750000,341.410000L147.750000,341.410000Z" opacity="0.5" fill="rgb(231,237,239)" stroke="none" stroke-width="1"/><path id="e1jyavsrlj6x35" d="M168.060000,382.350000C173.770000,384.840000,194.820000,381.730000,194.820000,381.730000C194.820000,381.730000,182.820000,364.170000,177.080000,361.730000C175.718000,361.103000,174.244000,360.754000,172.746000,360.704000C171.247000,360.653000,169.753000,360.902000,168.352000,361.437000C166.951000,361.971000,165.670000,362.779000,164.586000,363.815000C163.501000,364.850000,162.634000,366.091000,162.035000,367.466000C161.436000,368.841000,161.117000,370.322000,161.098000,371.821000C161.078000,373.320000,161.358000,374.809000,161.921000,376.198000C162.484000,377.588000,163.319000,378.852000,164.377000,379.915000C165.434000,380.978000,166.693000,381.820000,168.080000,382.390000L168.060000,382.350000Z" opacity="0.5" fill="rgb(231,237,239)" stroke="none" stroke-width="1"/><path id="e1jyavsrlj6x36" d="M182.410000,288.870000C179.030000,294.100000,159.750000,303.120000,159.750000,303.120000C159.750000,303.120000,160.100000,281.840000,163.490000,276.610000C165.116000,274.101000,167.672000,272.341000,170.595000,271.716000C173.519000,271.092000,176.571000,271.654000,179.080000,273.280000C181.589000,274.906000,183.349000,277.462000,183.974000,280.385000C184.598000,283.309000,184.036000,286.361000,182.410000,288.870000L182.410000,288.870000Z" opacity="0.5" fill="rgb(231,237,239)" stroke="none" stroke-width="1"/><path id="e1jyavsrlj6x37" d="M205.560000,337.060000C200.770000,341.060000,179.670000,343.880000,179.670000,343.880000C179.670000,343.880000,186.370000,323.680000,191.170000,319.700000C193.472000,317.792000,196.438000,316.876000,199.415000,317.155000C202.392000,317.433000,205.137000,318.883000,207.045000,321.185000C208.953000,323.487000,209.869000,326.453000,209.590000,329.430000C209.312000,332.407000,207.862000,335.152000,205.560000,337.060000Z" opacity="0.5" fill="rgb(231,237,239)" stroke="none" stroke-width="1"/><path id="e1jyavsrlj6x38" d="M221.630000,386.990000C217.580000,391.720000,197.270000,398.090000,197.270000,398.090000C197.270000,398.090000,200.460000,377.090000,204.520000,372.320000C205.484000,371.196000,206.660000,370.273000,207.981000,369.603000C209.301000,368.933000,210.741000,368.530000,212.217000,368.417000C213.694000,368.304000,215.178000,368.482000,216.586000,368.943000C217.993000,369.403000,219.296000,370.136000,220.420000,371.100000C221.544000,372.064000,222.467000,373.240000,223.137000,374.560000C223.807000,375.881000,224.210000,377.321000,224.323000,378.797000C224.436000,380.274000,224.258000,381.758000,223.797000,383.166000C223.337000,384.573000,222.604000,385.876000,221.640000,387L221.630000,386.990000Z" opacity="0.5" fill="rgb(255,255,255)" stroke="none" stroke-width="1"/></g></g><path id="e1jyavsrlj6x39" d="M504.500000,20.390000L504.500000,37.740000L504.500000,364.350000L1009.420000,364.350000L1009.420000,37.740000L1009.420000,20.390000L504.500000,20.390000Z" fill="url(#e1jyavsrlj6x39-fill)" stroke="none" stroke-width="1"/><g id="e1jyavsrlj6x40_to" transform="translate(754.579999,106.089157)"><path id="e1jyavsrlj6x40" d="M1004.070000,55.055847L515.440000,55.055847L515.440000,370.263634L1004.070000,370.263634L1004.070000,55.055847Z" transform="translate(-758.029999,-197.055004)" fill="rgb(255,255,255)" stroke="none" stroke-width="1"/></g><path id="e1jyavsrlj6x41" d="M1004.070000,20.670000L511.990000,20.670000L511.990000,44.370000L1004.070000,44.370000L1004.070000,20.670000Z" fill="rgb(238,238,238)" stroke="none" stroke-width="1"/><path id="e1jyavsrlj6x42" d="M530.710000,37.910000C533.886000,37.910000,536.460000,35.335600,536.460000,32.160000C536.460000,28.984300,533.886000,26.410000,530.710000,26.410000C527.534000,26.410000,524.960000,28.984300,524.960000,32.160000C524.960000,35.335600,527.534000,37.910000,530.710000,37.910000Z" fill="rgb(255,82,82)" stroke="none" stroke-width="1"/><path id="e1jyavsrlj6x43" d="M546.520000,37.910000C549.696000,37.910000,552.270000,35.335600,552.270000,32.160000C552.270000,28.984300,549.696000,26.410000,546.520000,26.410000C543.344000,26.410000,540.770000,28.984300,540.770000,32.160000C540.770000,35.335600,543.344000,37.910000,546.520000,37.910000Z" fill="rgb(255,255,0)" stroke="none" stroke-width="1"/><path id="e1jyavsrlj6x44" d="M562.320000,37.910000C565.496000,37.910000,568.070000,35.335600,568.070000,32.160000C568.070000,28.984300,565.496000,26.410000,562.320000,26.410000C559.144000,26.410000,556.570000,28.984300,556.570000,32.160000C556.570000,35.335600,559.144000,37.910000,562.320000,37.910000Z" fill="rgb(105,240,174)" stroke="none" stroke-width="1"/><g id="e1jyavsrlj6x45_to" transform="translate(621.534973,123.360000)"><g id="e1jyavsrlj6x45" transform="translate(-622.534973,-124.355003)" opacity="0.04"><path id="e1jyavsrlj6x46" d="M714.220000,82.330000L530.850000,82.330000L530.850000,88.855164L714.220000,88.855164L714.220000,82.330000Z" opacity="0.52" fill="rgb(99,198,255)" fill-rule="evenodd" stroke="none" stroke-width="1" stroke-dashoffset="379.790000" stroke-dasharray="379.790000"/><path id="e1jyavsrlj6x47" d="M714.220000,97.610000L530.850000,97.610000L530.850000,105.250000L714.220000,105.250000L714.220000,97.610000Z" opacity="0.5" fill="rgb(99,198,255)" stroke="none" stroke-width="1"/><path id="e1jyavsrlj6x48" d="M714.220000,112.890000L530.850000,112.890000L530.850000,120.530000L714.220000,120.530000L714.220000,112.890000Z" opacity="0.5" fill="rgb(99,198,255)" stroke="none" stroke-width="1"/><path id="e1jyavsrlj6x49" d="M714.210000,128.170000L594.050000,128.170000L594.050000,135.810000L714.210000,135.810000L714.210000,128.170000Z" opacity="0.5" fill="rgb(99,198,255)" stroke="none" stroke-width="1"/><path id="e1jyavsrlj6x50" d="M627.400000,143.460000L530.850000,143.460000L530.850000,151.100000L627.400000,151.100000L627.400000,143.460000Z" opacity="0.5" fill="rgb(99,198,255)" stroke="none" stroke-width="1"/><path id="e1jyavsrlj6x51" d="M657.260000,158.740000L582.940000,158.740000L582.940000,166.380000L657.260000,166.380000L657.260000,158.740000Z" opacity="0.5" fill="rgb(99,198,255)" stroke="none" stroke-width="1"/></g></g><g id="e1jyavsrlj6x52_to" transform="translate(858.000015,123.860000)"><g id="e1jyavsrlj6x52" transform="translate(-859.390015,-204.330139)" opacity="0.5"><path id="e1jyavsrlj6x53" d="M954.550000,135.820000L738.530000,135.820000L738.530000,260.150000L954.550000,260.150000L954.550000,135.820000Z" opacity="0.5" fill="rgb(99,198,255)" stroke="none" stroke-width="1"/><path id="e1jyavsrlj6x54" d="M980.100000,147.620000L764.230000,147.620000L764.230000,272.870268L980.100000,272.870268L980.100000,147.620000Z" transform="matrix(1 0 0 1 0.14999999999998 -0.02999999999997)" fill="rgb(238,238,238)" stroke="none" stroke-width="1"/><path id="e1jyavsrlj6x55" d="M885.090000,271.920000L764.230000,271.920000L764.230000,249.180000C793.760000,235.380000,839.190000,227.630000,885.090000,271.920000Z" fill="rgb(99,198,255)" stroke="none" stroke-width="1"/><path id="e1jyavsrlj6x56" d="M980.250000,268.700000L980.250000,271.920000L829.520000,271.920000L829.520000,271.230000C829.520000,271.230000,903.690000,199.050000,980.250000,268.700000Z" fill="rgb(99,198,255)" stroke="none" stroke-width="1"/><path id="e1jyavsrlj6x57" d="M789.240000,180.960000C795.376000,180.960000,800.350000,175.986000,800.350000,169.850000C800.350000,163.714000,795.376000,158.740000,789.240000,158.740000C783.104000,158.740000,778.130000,163.714000,778.130000,169.850000C778.130000,175.986000,783.104000,180.960000,789.240000,180.960000Z" fill="rgb(99,198,255)" stroke="none" stroke-width="1"/><path id="e1jyavsrlj6x58" d="M883.850000,161.430000C882.580000,161.430000,881.160000,161.430000,880.200000,161.510000C879.766000,161.534000,879.338000,161.622000,878.930000,161.770000L872.390000,164.120000C877.670000,164.250000,883.180000,164.210000,888.580000,164.120000L918.920000,163.890000C922.010000,163.890000,925.270000,163.840000,927.850000,163.650000C929.580000,163.530000,930.850000,163.340000,932.440000,163.200000C938.180000,162.690000,946.560000,162.790000,954.040000,162.810000C961.520000,162.830000,970.550000,162.640000,973.180000,161.890000L957.130000,161.890000C955.400000,161.890000,953.580000,161.890000,952.050000,161.800000C950.260000,161.700000,949.170000,161.500000,947.600000,161.360000C945,161.140000,941.420000,161.110000,938.080000,161.100000C919.800000,161.090000,901.730000,161.530000,883.850000,161.430000Z" fill="rgb(244,244,244)" stroke="none" stroke-width="1"/><path id="e1jyavsrlj6x59" d="M901.860000,174.920000C901.580000,174.920000,901.280000,174.920000,901.070000,174.920000C900.978000,174.927000,900.887000,174.948000,900.800000,174.980000L899.380000,175.490000C900.520000,175.490000,901.720000,175.490000,902.890000,175.490000L909.460000,175.440000C910.130000,175.440000,910.830000,175.440000,911.390000,175.390000L912.390000,175.290000C913.630000,175.180000,915.450000,175.200000,917.070000,175.210000C918.456000,175.256000,919.844000,175.189000,921.220000,175.010000L917.740000,175.010000C917.360000,175.010000,916.970000,175.010000,916.640000,175.010000C916.310000,175.010000,916.020000,174.940000,915.640000,174.920000C915.080000,174.920000,914.300000,174.870000,913.580000,174.860000C909.640000,174.840000,905.730000,174.920000,901.860000,174.920000Z" fill="rgb(244,244,244)" stroke="none" stroke-width="1"/><path id="e1jyavsrlj6x60" d="M855.320000,194.360000C855.040000,194.360000,854.740000,194.360000,854.530000,194.360000C854.438000,194.367000,854.347000,194.388000,854.260000,194.420000L852.840000,194.930000C853.980000,194.930000,855.180000,194.930000,856.350000,194.930000L862.920000,194.880000C863.590000,194.880000,864.290000,194.880000,864.850000,194.830000L865.850000,194.730000C867.090000,194.620000,868.910000,194.640000,870.530000,194.650000C871.916000,194.696000,873.304000,194.629000,874.680000,194.450000L871.200000,194.450000C870.820000,194.450000,870.430000,194.450000,870.100000,194.450000C869.770000,194.450000,869.480000,194.380000,869.100000,194.360000C868.540000,194.360000,867.760000,194.310000,867.040000,194.300000C863.110000,194.290000,859.190000,194.380000,855.320000,194.360000Z" fill="rgb(244,244,244)" stroke="none" stroke-width="1"/><path id="e1jyavsrlj6x61" d="M829.180000,265.790000L824,265.790000C824,265.790000,822.370000,208.670000,829.220000,191.040000L830.530000,191.040000C830.530000,191.040000,825.920000,255.680000,829.180000,265.790000Z" fill="rgb(99,198,255)" stroke="none" stroke-width="1"/><path id="e1jyavsrlj6x62" d="M825.590000,188.110000C825.590000,188.110000,821.350000,199.860000,823.310000,205.110000C823.310000,205.110000,826.250000,194.340000,829.680000,192.710000C833.110000,191.080000,836.680000,205.110000,836.680000,205.110000C836.680000,205.110000,838.680000,196.300000,835.050000,189.110000C839.642000,191.828000,843.375000,195.786000,845.820000,200.530000C845.820000,200.530000,846.470000,195.630000,837.990000,185.530000C837.990000,185.530000,845.500000,187.530000,850.390000,192.060000C850.390000,192.060000,852.020000,188.470000,841.900000,182.590000C841.900000,182.590000,843.210000,178.350000,851.040000,180.310000C851.040000,180.310000,851.040000,174.760000,838.640000,175.740000C838.640000,175.740000,838.640000,172.150000,846.800000,172.800000C846.800000,172.800000,846.800000,168.230000,837.330000,169.860000C837.330000,169.860000,839.330000,166.920000,840.590000,166.270000C838.956000,166.120000,837.326000,166.587000,836.020000,167.580000C836.020000,167.580000,836.350000,161.700000,831.450000,159.420000L830.800000,167.580000C830.800000,167.580000,825.310000,161.110000,826.560000,162.360000C827.348000,164.327000,827.690000,166.445000,827.560000,168.560000C827.560000,168.560000,822.010000,163.990000,815.160000,168.890000C815.160000,168.890000,823.650000,169.540000,824.950000,172.480000C824.950000,172.480000,817.770000,171.170000,816.140000,172.150000C816.140000,172.150000,821.690000,174.150000,821.360000,175.410000C821.360000,175.410000,811.570000,175.410000,810.260000,179C810.260000,179,820.380000,180.310000,821.030000,181.280000C821.030000,181.280000,809.280000,189.770000,808.630000,192.050000C808.630000,192.050000,820.710000,184.870000,822.630000,184.870000C824.550000,184.870000,813.820000,195.320000,814.470000,197.930000C814.500000,197.920000,823.310000,187.450000,825.590000,188.110000Z" fill="rgb(99,198,255)" stroke="none" stroke-width="1"/><path id="e1jyavsrlj6x63" d="M893.610000,263.660000L897.610000,263.660000C897.610000,263.660000,898.860000,220.020000,893.610000,206.550000L892.610000,206.550000C892.610000,206.550000,896.100000,255.920000,893.610000,263.660000Z" fill="rgb(99,198,255)" stroke="none" stroke-width="1"/><path id="e1jyavsrlj6x64" d="M896.350000,204.300000C896.350000,204.300000,899.590000,213.300000,898.100000,217.300000C898.100000,217.300000,895.860000,209.070000,893.240000,207.820000C890.620000,206.570000,887.880000,217.300000,887.880000,217.300000C887.880000,217.300000,886.380000,210.570000,889.130000,205.080000C885.620000,207.158000,882.768000,210.184000,880.900000,213.810000C880.900000,213.810000,880.400000,210.070000,886.900000,202.340000C886.900000,202.340000,881.160000,203.840000,877.420000,207.340000C877.420000,207.340000,876.170000,204.600000,883.900000,200.110000C883.900000,200.110000,882.900000,196.870000,876.900000,198.360000C876.900000,198.360000,876.900000,194.120000,886.380000,194.870000C886.380000,194.870000,886.380000,192.130000,880.150000,192.630000C880.150000,192.630000,880.150000,189.140000,887.380000,190.390000C886.711000,189.343000,885.869000,188.416000,884.890000,187.650000C886.138000,187.534000,887.383000,187.891000,888.380000,188.650000C888.380000,188.650000,888.130000,184.160000,891.870000,182.420000L892.370000,188.650000C892.370000,188.650000,896.560000,183.710000,895.610000,184.650000C895.012000,186.155000,894.756000,187.774000,894.860000,189.390000C894.860000,189.390000,899.100000,185.900000,904.340000,189.640000C904.340000,189.640000,897.860000,190.140000,896.860000,192.380000C896.860000,192.380000,902.350000,191.380000,903.590000,192.130000C903.590000,192.130000,899.350000,193.630000,899.590000,194.620000C899.590000,194.620000,907.070000,194.620000,908.070000,197.360000C908.070000,197.360000,900.340000,198.360000,899.840000,199.110000C899.840000,199.110000,908.840000,205.590000,909.320000,207.340000C909.320000,207.340000,900.090000,201.850000,898.600000,201.850000C897.110000,201.850000,905.330000,209.850000,904.830000,211.850000C904.830000,211.780000,898.100000,203.800000,896.350000,204.300000Z" fill="rgb(99,198,255)" stroke="none" stroke-width="1"/><path id="e1jyavsrlj6x65" d="M941.350000,255.130000L943.820000,255.130000C943.820000,255.130000,944.590000,228.130000,941.350000,219.760000L940.730000,219.760000C940.730000,219.760000,942.890000,250.340000,941.350000,255.130000Z" fill="rgb(99,198,255)" stroke="none" stroke-width="1"/><path id="e1jyavsrlj6x66" d="M943,218.370000C943,218.370000,945,223.930000,944.080000,226.370000C944.080000,226.370000,942.690000,221.270000,941.080000,220.500000C939.470000,219.730000,937.760000,226.370000,937.760000,226.370000C937.250000,223.827000,937.518000,221.189000,938.530000,218.800000C936.355000,220.087000,934.587000,221.963000,933.430000,224.210000C933.430000,224.210000,933.120000,221.890000,937.140000,217.110000C934.985000,217.709000,932.984000,218.763000,931.270000,220.200000C931.270000,220.200000,930.500000,218.500000,935.270000,215.720000C935.270000,215.720000,934.650000,213.720000,930.950000,214.640000C930.950000,214.640000,930.950000,212.010000,936.820000,212.480000C936.820000,212.480000,936.820000,210.780000,932.960000,211.090000C932.960000,211.090000,932.960000,208.930000,937.440000,209.700000C937.027000,209.050000,936.506000,208.475000,935.900000,208C936.672000,207.930000,937.442000,208.151000,938.060000,208.620000C938.023000,207.839000,938.206000,207.063000,938.588000,206.381000C938.969000,205.699000,939.535000,205.137000,940.220000,204.760000L940.530000,208.620000C940.530000,208.620000,943.130000,205.560000,942.530000,206.150000C942.162000,207.081000,942.005000,208.081000,942.070000,209.080000C942.928000,208.453000,943.969000,208.128000,945.031000,208.155000C946.092000,208.182000,947.115000,208.560000,947.940000,209.230000C947.940000,209.230000,943.940000,209.540000,943.310000,210.930000C943.310000,210.930000,946.710000,210.310000,947.480000,210.780000C947.480000,210.780000,944.850000,211.710000,945.010000,212.320000C945.010000,212.320000,949.640000,212.320000,950.260000,214.020000C950.260000,214.020000,945.470000,214.640000,945.160000,215.100000C945.160000,215.100000,950.720000,219.100000,951.030000,220.200000C951.030000,220.200000,945.320000,216.800000,944.390000,216.800000C943.460000,216.800000,948.560000,221.740000,948.250000,222.980000C948.300000,223,944.130000,218.060000,943,218.370000Z" fill="rgb(99,198,255)" stroke="none" stroke-width="1"/><path id="e1jyavsrlj6x67" d="M851,224.570000L850.480000,221.790000C850.479000,221.586000,850.437000,221.384000,850.357000,221.197000C850.276000,221.010000,850.158000,220.840000,850.010000,220.700000L847.600000,219.520000C847.420000,219.304000,847.275000,219.061000,847.170000,218.800000L847.170000,218.740000C847.304000,218.573000,847.400000,218.378000,847.450000,218.170000C847.454000,218.117000,847.454000,218.063000,847.450000,218.010000L847.450000,218.010000C847.677000,218.042000,847.908000,217.985000,848.095000,217.851000C848.281000,217.717000,848.408000,217.516000,848.450000,217.290000L848.450000,217.230000C848.404000,217.413000,848.300000,217.577000,848.154000,217.697000C848.009000,217.818000,847.829000,217.889000,847.640000,217.900000C847.969000,217.679000,848.241000,217.382000,848.430000,217.034000C848.620000,216.685000,848.723000,216.297000,848.730000,215.900000C848.730000,215.900000,848.730000,215.830000,848.730000,215.800000C848.837000,215.734000,848.928000,215.647000,848.999000,215.544000C849.070000,215.440000,849.118000,215.323000,849.140000,215.200000L849.140000,215.140000C849.110000,215.258000,849.057000,215.368000,848.983000,215.464000C848.909000,215.561000,848.816000,215.641000,848.710000,215.700000C848.692000,215.471000,848.641000,215.245000,848.560000,215.030000L848.620000,215.030000C848.856000,215.030000,849.082000,214.936000,849.249000,214.769000C849.416000,214.602000,849.510000,214.376000,849.510000,214.140000C849.510000,214.140000,849.510000,214.140000,849.510000,214.080000C849.495000,214.305000,849.394000,214.517000,849.229000,214.671000C849.064000,214.825000,848.846000,214.910000,848.620000,214.910000L848.510000,214.910000C848.772000,214.826000,849.005000,214.670000,849.182000,214.459000C849.358000,214.249000,849.472000,213.992000,849.510000,213.720000C849.510000,213.720000,849.510000,213.720000,849.510000,213.660000C849.498000,213.834000,849.436000,214.001000,849.330000,214.140000C849.347000,214.024000,849.341000,213.905000,849.312000,213.791000C849.284000,213.678000,849.233000,213.570000,849.163000,213.476000C849.093000,213.382000,849.005000,213.302000,848.904000,213.242000C848.803000,213.182000,848.691000,213.142000,848.575000,213.125000C848.459000,213.108000,848.340000,213.114000,848.226000,213.143000C848.113000,213.171000,848.005000,213.222000,847.911000,213.292000C847.817000,213.362000,847.737000,213.450000,847.677000,213.551000C847.617000,213.652000,847.577000,213.764000,847.560000,213.880000L847.400000,213.790000C847.450000,213.610000,847.555000,213.451000,847.700000,213.335000C847.846000,213.218000,848.024000,213.150000,848.210000,213.140000L848.150000,213.140000C847.962000,213.136000,847.777000,213.192000,847.622000,213.300000C847.468000,213.408000,847.351000,213.562000,847.290000,213.740000C846.753000,213.490000,846.143000,213.443000,845.574000,213.606000C845.004000,213.770000,844.513000,214.133000,844.190000,214.630000C844,214.770000,843.760000,214.970000,843.770000,215.140000C843.692000,215.220000,843.621000,215.307000,843.560000,215.400000C843.296000,215.978000,843.199000,216.619000,843.280000,217.250000C843.315000,217.564000,843.275000,217.881000,843.164000,218.177000C843.053000,218.472000,842.873000,218.737000,842.640000,218.950000C842.744000,218.994000,842.857000,219.017000,842.970000,219.017000C843.083000,219.017000,843.196000,218.994000,843.300000,218.950000C843.508000,218.863000,843.703000,218.749000,843.880000,218.610000C844.044000,218.512000,844.184000,218.379000,844.290000,218.220000L844.290000,218.220000C844.406000,218.296000,844.530000,218.360000,844.660000,218.410000C844.710000,218.830000,844.720000,219.310000,844.540000,219.460000L844.540000,219.380000C844.091000,219.720000,843.531000,219.881000,842.970000,219.830000C842.638000,219.849000,842.316000,219.950000,842.033000,220.125000C841.751000,220.299000,841.516000,220.542000,841.350000,220.830000L840.600000,224.040000L840.600000,224.090000L840.600000,224.140000C840.610000,224.184000,840.632000,224.224000,840.664000,224.256000C840.696000,224.288000,840.736000,224.310000,840.780000,224.320000L841.010000,224.380000C841.088000,224.891000,841.084000,225.410000,841,225.920000C840.842000,226.697000,840.751000,227.487000,840.730000,228.280000C840.790000,228.680000,840.890000,230.740000,840.930000,231.720000C840.847000,232.050000,840.780000,232.384000,840.730000,232.720000L839.610000,239.430000C839.610000,239.430000,838.780000,244.800000,838.820000,246.430000L838.670000,247.370000C838.670000,247.370000,836.400000,250.220000,837.070000,250.620000C837.740000,251.020000,838.760000,251.200000,839.740000,249.680000C839.871000,249.323000,840.083000,249.001000,840.360000,248.740000C840.470000,248.644000,840.555000,248.523000,840.609000,248.387000C840.663000,248.252000,840.684000,248.105000,840.670000,247.960000L840.600000,247.300000L840.720000,247.300000L840.790000,247.300000C841.407000,245.275000,841.743000,243.176000,841.790000,241.060000C841.790000,241.060000,843.860000,233.680000,845.440000,232.520000L845.590000,232.450000L845.930000,239.590000L845.590000,247.470000L845.520000,247.940000C845.520000,247.940000,843.250000,250.790000,843.920000,251.190000C844.590000,251.590000,845.610000,251.770000,846.590000,250.250000C846.721000,249.893000,846.933000,249.571000,847.210000,249.310000C847.320000,249.214000,847.405000,249.093000,847.459000,248.957000C847.513000,248.822000,847.534000,248.675000,847.520000,248.530000L847.420000,247.530000C847.810000,246.210000,848.820000,242.380000,848.420000,240.170000L849.110000,235.460000C849.810000,234.680000,849.710000,232.690000,849.710000,232.690000C850.260000,231.550000,850.380000,227.050000,850.380000,227.050000L850.520000,224.830000L850.830000,224.830000L850.940000,224.830000L850.990000,224.770000L850.990000,224.720000L851,224.570000ZM849.060000,229.080000C849,228.930000,848.930000,228.770000,848.850000,228.620000L848.790000,228.620000L848.790000,228.560000L848.790000,228.510000L848.790000,228.450000C848.821000,228.375000,848.848000,228.298000,848.870000,228.220000C848.959000,228.076000,849.004000,227.909000,849,227.740000C849.100000,228.179000,849.133000,228.631000,849.100000,229.080000L849.060000,229.080000ZM848.850000,227.180000L848.710000,225.690000L848.710000,225.570000L848.900000,227.460000L848.850000,227.180000ZM842.260000,227.380000C842.213000,227.435000,842.179000,227.499000,842.158000,227.567000C842.137000,227.636000,842.131000,227.709000,842.140000,227.780000C842.140000,227.780000,842.140000,227.780000,842.140000,227.780000C842.140000,227.932000,842.160000,228.083000,842.200000,228.230000L841.980000,229.160000L841.980000,227.380000C842.121000,227.191000,842.245000,226.991000,842.350000,226.780000C842.399000,226.979000,842.385000,227.189000,842.310000,227.380000L842.260000,227.380000Z" fill="url(#e1jyavsrlj6x67-fill)" stroke="none" stroke-width="1"/><path id="e1jyavsrlj6x68" d="M843.710000,215.920000C843.456000,216.477000,843.362000,217.093000,843.440000,217.700000C843.477000,218.003000,843.440000,218.311000,843.332000,218.596000C843.224000,218.882000,843.048000,219.137000,842.820000,219.340000C842.920000,219.382000,843.027000,219.403000,843.135000,219.403000C843.243000,219.403000,843.350000,219.382000,843.450000,219.340000C843.651000,219.256000,843.839000,219.145000,844.010000,219.010000C844.167000,218.914000,844.300000,218.784000,844.400000,218.630000C844.496000,218.389000,844.527000,218.127000,844.490000,217.870000C844.492000,217.417000,844.532000,216.966000,844.610000,216.520000C844.610000,216.240000,844.920000,215.520000,844.610000,215.340000C844.300000,215.160000,843.850000,215.700000,843.710000,215.920000Z" fill="rgb(114,53,28)" stroke="none" stroke-width="1"/><path id="e1jyavsrlj6x69" d="M839.120000,245.430000L838.910000,246.800000C838.910000,246.800000,836.720000,249.550000,837.370000,249.930000C838.020000,250.310000,839,250.490000,839.940000,249.030000C840.068000,248.688000,840.273000,248.380000,840.540000,248.130000L840.540000,248.130000C840.646000,248.038000,840.728000,247.921000,840.780000,247.791000C840.832000,247.661000,840.853000,247.520000,840.840000,247.380000L840.630000,245.260000L839.120000,245.430000Z" fill="rgb(51,51,51)" stroke="none" stroke-width="1"/><path id="e1jyavsrlj6x70" d="M845.710000,245.980000L845.500000,247.350000C845.500000,247.350000,843.310000,250.100000,843.960000,250.480000C844.610000,250.860000,845.590000,251.040000,846.530000,249.580000C846.658000,249.238000,846.863000,248.929000,847.130000,248.680000L847.130000,248.680000C847.236000,248.588000,847.318000,248.471000,847.370000,248.341000C847.422000,248.211000,847.443000,248.070000,847.430000,247.930000L847.220000,245.810000L845.710000,245.980000Z" fill="rgb(51,51,51)" stroke="none" stroke-width="1"/><path id="e1jyavsrlj6x71" d="M842.300000,229.370000C842.300000,229.370000,841.300000,230.110000,840.890000,232.700000L839.810000,239.160000C839.419000,241.476000,839.172000,243.814000,839.070000,246.160000L840.890000,246.780000C841.495000,244.835000,841.832000,242.816000,841.890000,240.780000C841.890000,240.780000,844.080000,232.990000,845.610000,232.440000L845.930000,239.320000L845.590000,247.080000L847.150000,247.390000C847.150000,247.390000,848.730000,242.460000,848.230000,239.850000L849.040000,234.300000C849.564000,232.471000,849.436000,230.516000,848.680000,228.770000L842.300000,229.370000Z" fill="rgb(77,138,240)" stroke="none" stroke-width="1"/><path id="e1jyavsrlj6x72" d="M840.900000,224.310000C840.899000,224.363000,840.916000,224.415000,840.949000,224.457000C840.982000,224.499000,841.028000,224.528000,841.080000,224.540000C841.582000,224.659000,842.053000,224.884000,842.460000,225.200000C843.230000,225.800000,841.650000,224,841.650000,224L841.120000,224.120000L840.900000,224.310000L840.900000,224.310000Z" fill="rgb(245,95,68)" stroke="none" stroke-width="1"/><path id="e1jyavsrlj6x73" d="M840.900000,224.310000C840.899000,224.363000,840.916000,224.415000,840.949000,224.457000C840.982000,224.499000,841.028000,224.528000,841.080000,224.540000C841.582000,224.659000,842.053000,224.884000,842.460000,225.200000C843.230000,225.800000,841.650000,224,841.650000,224L841.120000,224.120000L840.900000,224.310000L840.900000,224.310000Z" opacity="0.1" fill="rgb(0,0,0)" stroke="none" stroke-width="1"/><path id="e1jyavsrlj6x74" d="M848.420000,225.920000C849.062000,225.460000,849.807000,225.165000,850.590000,225.060000C850.643000,225.060000,850.694000,225.039000,850.731000,225.001000C850.769000,224.964000,850.790000,224.913000,850.790000,224.860000L850.790000,224.860000C850.567000,224.758000,850.324000,224.705000,850.078000,224.704000C849.833000,224.703000,849.590000,224.754000,849.366000,224.855000C849.141000,224.955000,848.941000,225.102000,848.778000,225.286000C848.615000,225.469000,848.493000,225.685000,848.420000,225.920000L848.420000,225.920000Z" fill="rgb(245,95,68)" stroke="none" stroke-width="1"/><path id="e1jyavsrlj6x75" d="M850.790000,224.830000C850.567000,224.728000,850.324000,224.675000,850.078000,224.674000C849.833000,224.673000,849.590000,224.724000,849.366000,224.825000C849.141000,224.925000,848.941000,225.072000,848.778000,225.256000C848.615000,225.439000,848.493000,225.656000,848.420000,225.890000C848.420000,225.890000,849.760000,224.890000,850.690000,225.030000" opacity="0.1" fill="rgb(0,0,0)" stroke="none" stroke-width="1"/><path id="e1jyavsrlj6x76" d="M846.310000,218.830000C847.619000,218.830000,848.680000,217.769000,848.680000,216.460000C848.680000,215.151000,847.619000,214.090000,846.310000,214.090000C845.001000,214.090000,843.940000,215.151000,843.940000,216.460000C843.940000,217.769000,845.001000,218.830000,846.310000,218.830000Z" fill="rgb(114,53,28)" stroke="none" stroke-width="1"/><path id="e1jyavsrlj6x77" d="M844.670000,218.120000C844.670000,218.120000,845.010000,219.510000,844.670000,219.800000C844.330000,220.090000,843.670000,220.610000,844.170000,221.020000C844.670000,221.430000,846.490000,222.120000,847.090000,221.790000C847.690000,221.460000,848.380000,221.550000,848.220000,220.860000C848.060000,220.170000,846.740000,220.310000,846.710000,216.860000L844.670000,218.120000Z" fill="rgb(253,183,151)" stroke="none" stroke-width="1"/><path id="e1jyavsrlj6x78" d="M841.320000,223.920000C841.371000,224.673000,841.324000,225.429000,841.180000,226.170000C841.028000,226.918000,840.941000,227.677000,840.920000,228.440000C840.990000,228.940000,841.140000,232.250000,841.140000,232.250000C841.140000,232.250000,840.880000,235.150000,842.290000,234.880000C843.700000,234.610000,842.070000,231.580000,842.070000,231.580000L842.140000,227.580000C842.531000,227.063000,842.780000,226.453000,842.860000,225.810000C842.920000,224.920000,841.320000,223.920000,841.320000,223.920000Z" opacity="0.1" fill="rgb(0,0,0)" stroke="none" stroke-width="1"/><path id="e1jyavsrlj6x79" d="M841.290000,223.920000C841.341000,224.673000,841.294000,225.429000,841.150000,226.170000C840.998000,226.918000,840.911000,227.677000,840.890000,228.440000C840.960000,228.940000,841.110000,232.250000,841.110000,232.250000C841.110000,232.250000,840.850000,235.150000,842.260000,234.880000C843.670000,234.610000,842.040000,231.580000,842.040000,231.580000L842.110000,227.580000C842.501000,227.063000,842.750000,226.453000,842.830000,225.810000C842.900000,224.920000,841.290000,223.920000,841.290000,223.920000Z" fill="rgb(253,183,151)" stroke="none" stroke-width="1"/><path id="e1jyavsrlj6x80" d="M850.320000,224.110000L850.130000,227.200000C850.130000,227.200000,850.010000,231.530000,849.480000,232.630000C849.480000,232.630000,849.620000,235.630000,848.210000,235.630000C846.800000,235.630000,848.450000,232.300000,848.450000,232.300000C848.450000,232.300000,849.210000,228.920000,848.820000,227.840000L848.450000,224.130000L850.320000,224.110000Z" opacity="0.1" fill="rgb(0,0,0)" stroke="none" stroke-width="1"/><path id="e1jyavsrlj6x81" d="M850.340000,224.110000L850.150000,227.200000C850.150000,227.200000,850.030000,231.530000,849.500000,232.630000C849.500000,232.630000,849.640000,235.630000,848.230000,235.630000C846.820000,235.630000,848.470000,232.300000,848.470000,232.300000C848.470000,232.300000,849.230000,228.920000,848.840000,227.840000L848.470000,224.130000L850.340000,224.110000Z" fill="rgb(253,183,151)" stroke="none" stroke-width="1"/><path id="e1jyavsrlj6x82" d="M845.750000,221.110000C845.750000,221.110000,846.890000,221.640000,847.520000,220.110000L849.850000,221.250000C849.992000,221.385000,850.105000,221.548000,850.183000,221.729000C850.260000,221.909000,850.300000,222.104000,850.300000,222.300000L850.800000,224.980000C850.588000,224.897000,850.362000,224.857000,850.134000,224.862000C849.907000,224.867000,849.682000,224.918000,849.475000,225.011000C849.267000,225.104000,849.080000,225.238000,848.925000,225.404000C848.769000,225.571000,848.649000,225.766000,848.570000,225.980000L848.710000,227.490000C848.823000,227.863000,848.798000,228.264000,848.640000,228.620000C848.626000,228.652000,848.619000,228.686000,848.619000,228.720000C848.619000,228.754000,848.626000,228.788000,848.640000,228.820000C848.681000,228.930000,848.696000,229.049000,848.682000,229.166000C848.669000,229.282000,848.628000,229.394000,848.562000,229.492000C848.497000,229.590000,848.409000,229.671000,848.306000,229.728000C848.203000,229.785000,848.088000,229.816000,847.970000,229.820000C847.344000,229.825000,846.720000,229.872000,846.100000,229.960000C845.600000,230.100000,844.100000,229.670000,843.590000,229.960000C843.080000,230.250000,842.030000,229.740000,842.030000,229.740000L842.320000,228.520000C842.320000,228.520000,842.130000,227.920000,842.320000,227.710000C842.502000,226.844000,842.461000,225.946000,842.200000,225.100000C842.200000,225.100000,841.340000,224.290000,840.840000,224.430000L841.560000,221.340000C841.712000,221.053000,841.935000,220.810000,842.208000,220.634000C842.482000,220.459000,842.796000,220.358000,843.120000,220.340000C843.659000,220.389000,844.198000,220.236000,844.630000,219.910000C844.630000,219.910000,844.070000,220.920000,845.750000,221.110000Z" opacity="0.1" fill="rgb(0,0,0)" stroke="none" stroke-width="1"/><path id="e1jyavsrlj6x83" d="M845.870000,221.060000C846.180000,221.140000,847.020000,221.240000,847.520000,219.980000L849.850000,221.120000C849.992000,221.255000,850.105000,221.418000,850.183000,221.599000C850.260000,221.779000,850.300000,221.974000,850.300000,222.170000L850.800000,224.850000C850.588000,224.767000,850.362000,224.727000,850.134000,224.732000C849.907000,224.737000,849.682000,224.788000,849.475000,224.881000C849.267000,224.974000,849.080000,225.108000,848.925000,225.274000C848.769000,225.441000,848.649000,225.636000,848.570000,225.850000L848.710000,227.360000L848.800000,227.660000C848.841000,227.787000,848.852000,227.922000,848.831000,228.054000C848.810000,228.186000,848.758000,228.312000,848.680000,228.420000C848.654000,228.462000,848.641000,228.511000,848.641000,228.560000C848.641000,228.609000,848.654000,228.658000,848.680000,228.700000C848.721000,228.810000,848.736000,228.929000,848.722000,229.046000C848.709000,229.162000,848.668000,229.274000,848.602000,229.372000C848.537000,229.470000,848.449000,229.551000,848.346000,229.608000C848.243000,229.665000,848.128000,229.696000,848.010000,229.700000C847.384000,229.705000,846.760000,229.752000,846.140000,229.840000C845.640000,229.980000,844.140000,229.550000,843.630000,229.840000C843.120000,230.130000,842.070000,229.620000,842.070000,229.620000L842.360000,228.400000C842.360000,228.400000,842.170000,227.800000,842.360000,227.590000C842.542000,226.724000,842.501000,225.826000,842.240000,224.980000C842.240000,224.980000,841.380000,224.170000,840.880000,224.310000L841.600000,221.220000C841.751000,220.933000,841.975000,220.690000,842.248000,220.514000C842.522000,220.339000,842.836000,220.238000,843.160000,220.220000C843.699000,220.269000,844.238000,220.116000,844.670000,219.790000C844.670000,219.790000,844.110000,220.790000,845.590000,221.040000L845.870000,221.060000Z" opacity="0.1" fill="rgb(0,0,0)" stroke="none" stroke-width="1"/><path id="e1jyavsrlj6x84" d="M845.870000,221.110000C846.180000,221.190000,847.020000,221.290000,847.520000,220.030000L849.850000,221.170000C849.992000,221.305000,850.105000,221.468000,850.183000,221.649000C850.260000,221.829000,850.300000,222.024000,850.300000,222.220000L850.800000,224.900000C850.588000,224.817000,850.362000,224.777000,850.134000,224.782000C849.907000,224.787000,849.682000,224.838000,849.475000,224.931000C849.267000,225.024000,849.080000,225.158000,848.925000,225.324000C848.769000,225.491000,848.649000,225.686000,848.570000,225.900000L848.710000,227.410000C848.823000,227.783000,848.798000,228.184000,848.640000,228.540000C848.626000,228.572000,848.619000,228.606000,848.619000,228.640000C848.619000,228.674000,848.626000,228.708000,848.640000,228.740000C848.681000,228.850000,848.696000,228.969000,848.682000,229.086000C848.669000,229.202000,848.628000,229.314000,848.562000,229.412000C848.497000,229.510000,848.409000,229.591000,848.306000,229.648000C848.203000,229.705000,848.088000,229.736000,847.970000,229.740000C847.344000,229.745000,846.720000,229.792000,846.100000,229.880000C845.600000,230.020000,844.100000,229.590000,843.590000,229.880000C843.080000,230.170000,842.030000,229.660000,842.030000,229.660000L842.320000,228.440000C842.320000,228.440000,842.130000,227.840000,842.320000,227.630000C842.502000,226.764000,842.461000,225.866000,842.200000,225.020000C842.200000,225.020000,841.340000,224.210000,840.840000,224.350000L841.560000,221.260000C841.712000,220.973000,841.935000,220.730000,842.208000,220.554000C842.482000,220.379000,842.796000,220.278000,843.120000,220.260000C843.659000,220.309000,844.198000,220.156000,844.630000,219.830000C844.630000,219.830000,844.070000,220.830000,845.550000,221.080000L845.870000,221.110000Z" fill="rgb(245,95,68)" stroke="none" stroke-width="1"/><path id="e1jyavsrlj6x85" d="M846.750000,216.970000L844.750000,218.240000C844.801000,218.458000,844.841000,218.678000,844.870000,218.900000C845.102000,218.992000,845.350000,219.039000,845.600000,219.040000C846.098000,219.007000,846.568000,218.794000,846.920000,218.440000C846.818000,217.956000,846.761000,217.464000,846.750000,216.970000L846.750000,216.970000Z" opacity="0.1" fill="rgb(0,0,0)" stroke="none" stroke-width="1"/><path id="e1jyavsrlj6x86" d="M845.520000,218.920000C846.602000,218.920000,847.480000,218.042000,847.480000,216.960000C847.480000,215.878000,846.602000,215,845.520000,215C844.438000,215,843.560000,215.878000,843.560000,216.960000C843.560000,218.042000,844.438000,218.920000,845.520000,218.920000Z" fill="rgb(253,183,151)" stroke="none" stroke-width="1"/><path id="e1jyavsrlj6x87" d="M848.420000,215.450000C848.895000,215.450000,849.280000,215.065000,849.280000,214.590000C849.280000,214.115000,848.895000,213.730000,848.420000,213.730000C847.945000,213.730000,847.560000,214.115000,847.560000,214.590000C847.560000,215.065000,847.945000,215.450000,848.420000,215.450000Z" fill="rgb(114,53,28)" stroke="none" stroke-width="1"/><path id="e1jyavsrlj6x88" d="M848.580000,215.500000C848.362000,215.501000,848.152000,215.418000,847.992000,215.270000C847.832000,215.121000,847.735000,214.918000,847.720000,214.700000C847.720000,214.700000,847.720000,214.700000,847.720000,214.760000C847.720000,214.988000,847.811000,215.207000,847.972000,215.368000C848.133000,215.529000,848.352000,215.620000,848.580000,215.620000C848.808000,215.620000,849.027000,215.529000,849.188000,215.368000C849.349000,215.207000,849.440000,214.988000,849.440000,214.760000C849.440000,214.760000,849.440000,214.760000,849.440000,214.700000C849.425000,214.918000,849.328000,215.121000,849.168000,215.270000C849.008000,215.418000,848.798000,215.501000,848.580000,215.500000L848.580000,215.500000Z" fill="rgb(114,53,28)" stroke="none" stroke-width="1"/><path id="e1jyavsrlj6x89" d="M848.090000,216.360000C847.876000,216.321000,847.685000,216.202000,847.555000,216.028000C847.425000,215.853000,847.366000,215.636000,847.390000,215.420000L847.390000,215.480000C847.349000,215.705000,847.399000,215.938000,847.529000,216.126000C847.660000,216.315000,847.860000,216.444000,848.085000,216.485000C848.310000,216.526000,848.543000,216.476000,848.731000,216.346000C848.920000,216.215000,849.049000,216.015000,849.090000,215.790000L849.090000,215.730000C849.035000,215.943000,848.901000,216.127000,848.715000,216.244000C848.529000,216.361000,848.306000,216.403000,848.090000,216.360000Z" fill="rgb(114,53,28)" stroke="none" stroke-width="1"/><path id="e1jyavsrlj6x90" d="M847.420000,218.420000C847.206000,218.381000,847.015000,218.262000,846.885000,218.088000C846.755000,217.913000,846.696000,217.696000,846.720000,217.480000L846.720000,217.540000C846.679000,217.765000,846.729000,217.998000,846.859000,218.186000C846.990000,218.375000,847.190000,218.504000,847.415000,218.545000C847.640000,218.586000,847.873000,218.536000,848.061000,218.406000C848.250000,218.275000,848.379000,218.075000,848.420000,217.850000L848.420000,217.790000C848.365000,218.003000,848.231000,218.187000,848.045000,218.304000C847.859000,218.421000,847.636000,218.463000,847.420000,218.420000L847.420000,218.420000Z" fill="rgb(114,53,28)" stroke="none" stroke-width="1"/><path id="e1jyavsrlj6x91" d="M848.580000,215.050000C848.362000,215.051000,848.152000,214.968000,847.992000,214.820000C847.832000,214.671000,847.735000,214.468000,847.720000,214.250000C847.720000,214.250000,847.720000,214.250000,847.720000,214.310000C847.720000,214.538000,847.811000,214.757000,847.972000,214.918000C848.133000,215.079000,848.352000,215.170000,848.580000,215.170000C848.808000,215.170000,849.027000,215.079000,849.188000,214.918000C849.349000,214.757000,849.440000,214.538000,849.440000,214.310000C849.440000,214.310000,849.440000,214.310000,849.440000,214.250000C849.425000,214.468000,849.328000,214.671000,849.168000,214.820000C849.008000,214.968000,848.798000,215.051000,848.580000,215.050000L848.580000,215.050000Z" fill="rgb(114,53,28)" stroke="none" stroke-width="1"/><path id="e1jyavsrlj6x92" d="M847.380000,214.580000C847.382000,214.362000,847.467000,214.153000,847.617000,213.995000C847.768000,213.837000,847.972000,213.743000,848.190000,213.730000L848.130000,213.730000C847.902000,213.730000,847.683000,213.821000,847.522000,213.982000C847.361000,214.143000,847.270000,214.362000,847.270000,214.590000C847.270000,214.818000,847.361000,215.037000,847.522000,215.198000C847.683000,215.359000,847.902000,215.450000,848.130000,215.450000L848.190000,215.450000C847.969000,215.437000,847.761000,215.340000,847.610000,215.177000C847.460000,215.015000,847.377000,214.801000,847.380000,214.580000L847.380000,214.580000Z" fill="rgb(114,53,28)" stroke="none" stroke-width="1"/><path id="e1jyavsrlj6x93" d="M848.250000,222.710000C848.340000,223.135000,848.340000,223.575000,848.250000,224C848.250000,224,848.130000,225.130000,848.320000,225.320000" opacity="0.1" fill="rgb(0,0,0)" stroke="none" stroke-width="1"/><path id="e1jyavsrlj6x94" d="M842.430000,222.920000C842.520000,223.345000,842.520000,223.785000,842.430000,224.210000C842.430000,224.210000,842.310000,225.340000,842.500000,225.530000" opacity="0.1" fill="rgb(0,0,0)" stroke="none" stroke-width="1"/><path id="e1jyavsrlj6x95" d="M842.380000,227.590000C842.564000,227.655000,842.766000,227.655000,842.950000,227.590000C843.175000,227.522000,843.415000,227.522000,843.640000,227.590000" opacity="0.1" fill="rgb(0,0,0)" stroke="none" stroke-width="1"/><path id="e1jyavsrlj6x96" d="M842.670000,225.920000C843.351000,225.954000,844.031000,225.849000,844.670000,225.610000C844.670000,225.610000,847.110000,226.210000,847.810000,225.780000" opacity="0.1" fill="rgb(0,0,0)" stroke="none" stroke-width="1"/><path id="e1jyavsrlj6x97" d="M841.990000,236.210000L841.320000,236.210000C841.088000,236.210000,840.900000,236.398000,840.900000,236.630000L840.900000,236.720000C840.900000,236.952000,841.088000,237.140000,841.320000,237.140000L841.990000,237.140000C842.222000,237.140000,842.410000,236.952000,842.410000,236.720000L842.410000,236.630000C842.410000,236.398000,842.222000,236.210000,841.990000,236.210000Z" fill="rgb(253,183,151)" stroke="none" stroke-width="1"/><path id="e1jyavsrlj6x98" d="M840.900000,236.450000L841.710000,236.450000L842.410000,236.560000L842.160000,236.560000L840.900000,236.450000Z" fill="rgb(240,228,228)" stroke="none" stroke-width="1"/><path id="e1jyavsrlj6x99" d="M846.330000,232.570000L847.140000,232.570000L847.840000,232.640000L847.590000,232.640000L846.330000,232.570000Z" fill="rgb(240,228,228)" stroke="none" stroke-width="1"/><path id="e1jyavsrlj6x100" d="M846.330000,232.740000L847.140000,232.740000L847.840000,232.810000L847.590000,232.810000L846.330000,232.740000Z" fill="rgb(240,228,228)" stroke="none" stroke-width="1"/><path id="e1jyavsrlj6x101" d="M846.330000,232.920000L847.140000,232.920000L847.840000,232.990000L847.590000,232.990000L846.330000,232.920000Z" fill="rgb(240,228,228)" stroke="none" stroke-width="1"/><path id="e1jyavsrlj6x102" d="M846.330000,233.070000L847.140000,233.070000L847.840000,233.140000L847.590000,233.140000L846.330000,233.070000Z" fill="rgb(240,228,228)" stroke="none" stroke-width="1"/><path id="e1jyavsrlj6x103" d="M840.900000,237.110000L841.710000,237.110000L842.410000,237.190000L842.160000,237.190000L840.900000,237.110000Z" fill="rgb(240,228,228)" stroke="none" stroke-width="1"/><path id="e1jyavsrlj6x104" d="M840.900000,237.030000L841.710000,237.030000L842.410000,237.110000L842.160000,237.110000L840.900000,237.030000Z" fill="rgb(240,228,228)" stroke="none" stroke-width="1"/><path id="e1jyavsrlj6x105" d="M840.900000,236.920000L841.710000,236.920000L842.410000,237L842.160000,237L840.900000,236.920000Z" fill="rgb(240,228,228)" stroke="none" stroke-width="1"/><path id="e1jyavsrlj6x106" d="M840.900000,236.860000L841.710000,236.860000L842.410000,236.940000L842.160000,236.940000L840.900000,236.860000Z" fill="rgb(240,228,228)" stroke="none" stroke-width="1"/><path id="e1jyavsrlj6x107" d="M840.900000,236.340000L841.710000,236.340000L842.410000,236.450000L842.160000,236.450000L840.900000,236.340000Z" fill="rgb(240,228,228)" stroke="none" stroke-width="1"/><path id="e1jyavsrlj6x108" d="M840.900000,236.200000L841.710000,236.200000L842.410000,236.310000L842.160000,236.310000L840.900000,236.200000Z" fill="rgb(240,228,228)" stroke="none" stroke-width="1"/><path id="e1jyavsrlj6x109" d="M845.850000,215.700000C845.772000,216.431000,845.864000,217.171000,846.120000,217.860000C846.243000,218.193000,846.296000,218.548000,846.275000,218.903000C846.254000,219.257000,846.161000,219.603000,846,219.920000C846.106000,219.946000,846.217000,219.946000,846.323000,219.920000C846.430000,219.894000,846.528000,219.842000,846.610000,219.770000C846.781000,219.619000,846.929000,219.444000,847.050000,219.250000C847.178000,219.092000,847.271000,218.908000,847.320000,218.710000C847.340000,218.400000,847.292000,218.090000,847.180000,217.800000C847.046000,217.267000,846.949000,216.726000,846.890000,216.180000C846.890000,215.850000,846.890000,214.890000,846.520000,214.800000C846.150000,214.710000,845.920000,215.420000,845.850000,215.700000Z" opacity="0.1" fill="rgb(0,0,0)" stroke="none" stroke-width="1"/><path id="e1jyavsrlj6x110" d="M845.900000,215.680000C845.822000,216.411000,845.914000,217.151000,846.170000,217.840000C846.297000,218.175000,846.353000,218.533000,846.334000,218.892000C846.315000,219.250000,846.222000,219.600000,846.060000,219.920000C846.166000,219.946000,846.277000,219.946000,846.383000,219.920000C846.490000,219.894000,846.588000,219.842000,846.670000,219.770000C846.841000,219.619000,846.989000,219.444000,847.110000,219.250000C847.238000,219.092000,847.331000,218.908000,847.380000,218.710000C847.400000,218.400000,847.352000,218.090000,847.240000,217.800000C847.106000,217.267000,847.009000,216.726000,846.950000,216.180000C846.950000,215.850000,846.950000,214.890000,846.580000,214.800000C846.210000,214.710000,846,215.400000,845.900000,215.680000Z" fill="rgb(114,53,28)" stroke="none" stroke-width="1"/><path id="e1jyavsrlj6x111" d="M845.060000,216.190000C845.220000,216.360000,845.260000,216.620000,845.400000,216.820000C845.526000,216.956000,845.682000,217.062000,845.855000,217.130000C846.028000,217.197000,846.215000,217.225000,846.400000,217.210000C846.497000,217.205000,846.594000,217.226000,846.680000,217.270000C846.830000,217.370000,846.840000,217.590000,846.940000,217.740000C846.992000,217.798000,847.055000,217.844000,847.125000,217.875000C847.196000,217.907000,847.273000,217.923000,847.350000,217.923000C847.427000,217.923000,847.504000,217.907000,847.575000,217.875000C847.645000,217.844000,847.708000,217.798000,847.760000,217.740000C847.927000,217.500000,848.012000,217.212000,848,216.920000C848.031000,216.587000,848.031000,216.253000,848,215.920000C847.990000,215.524000,847.834000,215.146000,847.560000,214.860000C847.332000,214.692000,847.069000,214.579000,846.790000,214.530000C846.408000,214.395000,845.998000,214.364000,845.600000,214.440000C845.408000,214.504000,845.226000,214.595000,845.060000,214.710000L844.360000,215.180000C844.100000,215.360000,843.620000,215.720000,844.090000,215.920000C844.430000,215.990000,844.810000,215.920000,845.060000,216.190000Z" opacity="0.1" fill="rgb(0,0,0)" stroke="none" stroke-width="1"/><path id="e1jyavsrlj6x112" d="M845.110000,216.170000C845.270000,216.340000,845.310000,216.600000,845.450000,216.800000C845.576000,216.936000,845.732000,217.042000,845.905000,217.110000C846.078000,217.177000,846.265000,217.205000,846.450000,217.190000C846.547000,217.185000,846.644000,217.206000,846.730000,217.250000C846.880000,217.350000,846.890000,217.570000,846.990000,217.720000C847.042000,217.778000,847.105000,217.824000,847.175000,217.855000C847.246000,217.887000,847.323000,217.903000,847.400000,217.903000C847.477000,217.903000,847.554000,217.887000,847.625000,217.855000C847.695000,217.824000,847.758000,217.778000,847.810000,217.720000C848.011000,217.478000,848.121000,217.174000,848.120000,216.860000C848.151000,216.527000,848.151000,216.193000,848.120000,215.860000C848.110000,215.464000,847.954000,215.086000,847.680000,214.800000C847.452000,214.632000,847.189000,214.519000,846.910000,214.470000C846.528000,214.335000,846.118000,214.304000,845.720000,214.380000C845.528000,214.444000,845.346000,214.535000,845.180000,214.650000L844.480000,215.120000C844.220000,215.300000,843.740000,215.660000,844.210000,215.860000C844.480000,215.920000,844.850000,215.920000,845.110000,216.170000Z" fill="rgb(114,53,28)" stroke="none" stroke-width="1"/></g></g><g id="e1jyavsrlj6x113" opacity="0.1"><path id="e1jyavsrlj6x114" d="M978.860000,268.700000L978.860000,271.920000L828.130000,271.920000L828.130000,271.230000C828.130000,271.230000,902.300000,199.050000,978.860000,268.700000Z" opacity="0.1" fill="rgb(0,0,0)" stroke="none" stroke-width="1"/></g><g id="e1jyavsrlj6x115" opacity="0.1"><path id="e1jyavsrlj6x116" d="M845.430000,232.540000L845.430000,232.420000C843.900000,232.970000,841.710000,240.760000,841.710000,240.760000C841.672000,242.774000,841.355000,244.773000,840.770000,246.700000L840.970000,246.770000C841.575000,244.825000,841.912000,242.806000,841.970000,240.770000C841.970000,240.770000,843.910000,233.660000,845.430000,232.540000Z" opacity="0.1" fill="rgb(0,0,0)" stroke="none" stroke-width="1"/><path id="e1jyavsrlj6x117" d="M848.710000,228.750000L848.500000,228.750000C849.248000,230.492000,849.371000,232.438000,848.850000,234.260000L848.040000,239.810000C848.520000,242.280000,847.120000,246.810000,846.980000,247.310000L847.180000,247.310000C847.180000,247.310000,848.760000,242.380000,848.260000,239.770000L849.070000,234.220000C849.579000,232.409000,849.452000,230.478000,848.710000,228.750000Z" opacity="0.1" fill="rgb(0,0,0)" stroke="none" stroke-width="1"/></g><path id="e1jyavsrlj6x118" d="M846.380000,232.570000L847.190000,232.570000L847.890000,232.640000L847.640000,232.640000L846.380000,232.570000Z" fill="rgb(240,228,228)" stroke="none" stroke-width="1"/><path id="e1jyavsrlj6x119" d="M846.380000,232.740000L847.190000,232.740000L847.890000,232.810000L847.640000,232.810000L846.380000,232.740000Z" fill="rgb(240,228,228)" stroke="none" stroke-width="1"/><path id="e1jyavsrlj6x120" d="M846.380000,232.920000L847.190000,232.920000L847.890000,232.990000L847.640000,232.990000L846.380000,232.920000Z" fill="rgb(240,228,228)" stroke="none" stroke-width="1"/><path id="e1jyavsrlj6x121" d="M846.380000,233.070000L847.190000,233.070000L847.890000,233.140000L847.640000,233.140000L846.380000,233.070000Z" fill="rgb(240,228,228)" stroke="none" stroke-width="1"/><path id="e1jyavsrlj6x122" d="M846,242.300000L846.810000,242.300000L847.510000,242.370000L847.260000,242.370000L846,242.300000Z" fill="rgb(240,228,228)" stroke="none" stroke-width="1"/><path id="e1jyavsrlj6x123" d="M846,242.460000L846.810000,242.460000L847.510000,242.530000L847.260000,242.530000L846,242.460000Z" fill="rgb(240,228,228)" stroke="none" stroke-width="1"/><path id="e1jyavsrlj6x124" d="M846,242.630000L846.810000,242.630000L847.510000,242.700000L847.260000,242.700000L846,242.630000Z" fill="rgb(240,228,228)" stroke="none" stroke-width="1"/><path id="e1jyavsrlj6x125" d="M846,242.800000L846.810000,242.800000L847.510000,242.870000L847.260000,242.870000L846,242.800000Z" fill="rgb(240,228,228)" stroke="none" stroke-width="1"/><path id="e1jyavsrlj6x126" d="M392.380000,694.680000L312.840000,694.680000L312.840000,649.870000L392.380000,649.870000L392.380000,694.680000ZM316.200000,691.320000L389,691.320000L389,653.230000L316.200000,653.230000L316.200000,691.320000Z" opacity="0.2" fill="rgb(99,198,255)" stroke="none" stroke-width="1"/><path id="e1jyavsrlj6x127" d="M259.900000,627.500000C264.900000,630.420000,270.170000,631.610000,275.620000,629.800000C277.036000,629.323000,278.405000,628.717000,279.710000,627.990000C330.710000,629.070000,377.940000,628.570000,379.770000,623.080000C382.770000,613.980000,363.770000,569.160000,354.180000,547.500000C357.001000,545.582000,359.386000,543.091000,361.180000,540.190000C374.500000,555.420000,399.280000,575.070000,414.010000,576.050000C414.010000,576.050000,435.510000,627.120000,459.700000,619.050000C483.890000,610.980000,486.580000,567.980000,474.480000,562.610000L393.850000,511.540000L393.850000,426.800000C396.300000,421.942000,397.461000,416.536000,397.220000,411.100000C397.220000,410.100000,397.270000,409.100000,397.220000,408.100000L394.530000,383.910000C394.530000,383.910000,394.390000,383.110000,394.020000,381.660000C388.020000,358.350000,374.650000,342.660000,355.800000,340.330000C356.718000,338.653000,357.276000,336.804000,357.440000,334.900000C357.830000,330.380000,355.950000,325.770000,357.010000,321.360000C358.250000,316.220000,363.010000,312.900000,366.920000,309.360000C375.270000,301.720000,380.530000,291.360000,385.610000,281.250000C390.450000,271.620000,395.360000,261.740000,396.610000,251.040000C397.860000,240.340000,394.610000,228.460000,385.860000,222.160000C379.060000,217.250000,369.490000,215.960000,364.600000,209.160000C362.410000,206.100000,361.500000,202.330000,359.990000,198.890000C355.640000,188.980000,346.260000,181.950000,336.080000,178.280000C300.360000,165.420000,256.540000,180.180000,233.750000,209.840000C226.310000,219.520000,220.940000,230.600000,215.630000,241.590000L196.430000,281.280000C193.120000,288.110000,189.920000,296.640000,194.340000,302.810000C196.500000,305.810000,200.200000,307.670000,201.700000,311.060000C203.700000,315.560000,201.200000,321.450000,204.140000,325.410000C205.760000,327.600000,208.570000,328.470000,210.980000,329.750000C214.216000,331.592000,217.033000,334.088000,219.250000,337.080000L177.090000,369.750000C174.044000,372.110000,171.510000,375.066000,169.643000,378.438000C167.776000,381.809000,166.614000,385.525000,166.230000,389.360000L162.060000,430.920000C160.733000,435.640000,160.100000,440.528000,160.180000,445.430000C160.030000,449.810000,160.540000,454.640000,162.730000,458.430000L163.650000,458.210000C164.650000,487.360000,166.390000,529.300000,168.110000,537.050000C169.110000,541.650000,175.420000,549.760000,183.920000,558.120000L180.920000,566.620000L181.920000,566.620000L180.920000,569.290000L182.920000,569.290000C174.440000,599.930000,151.370000,623.020000,151.370000,623.020000C151.370000,623.020000,204.720000,625.920000,259.900000,627.500000ZM209.760000,485.920000L209.760000,453.250000C214.680000,454.010000,218.310000,455.710000,219.470000,458.810000L209.760000,485.920000ZM224,343.740000L224.160000,343.980000L224.100000,343.980000L224,343.740000Z" fill="url(#e1jyavsrlj6x127-fill)" stroke="none" stroke-width="1"/><path id="e1jyavsrlj6x128" d="M345.310000,417.920000C345.310000,417.920000,347.860000,508.540000,350.420000,520.030000C352.980000,531.520000,390,566.020000,409.130000,567.300000C409.130000,567.300000,429.550000,615.800000,452.530000,608.140000C475.510000,600.480000,478.060000,559.640000,466.530000,554.530000L390,506.030000L390,409.030000L345.310000,417.920000Z" fill="rgb(253,183,151)" stroke="none" stroke-width="1"/><path id="e1jyavsrlj6x129" d="M347.230000,529.010000C347.230000,529.010000,380.420000,600.490000,376.590000,612.010000C372.760000,623.530000,159.590000,612.010000,159.590000,612.010000C159.590000,612.010000,199.160000,572.440000,191.500000,529.010000L347.230000,529.010000Z" fill="rgb(86,81,113)" stroke="none" stroke-width="1"/><path id="e1jyavsrlj6x130" d="M321.700000,317.130000C321.700000,317.130000,316.590000,366.910000,325.530000,378.400000C334.470000,389.890000,289.790000,396.260000,286,396.260000C282.210000,396.260000,241.330000,382.260000,233.670000,378.390000C226.010000,374.520000,219.670000,346.480000,219.670000,346.480000C219.670000,346.480000,257.960000,354.140000,269.450000,309.480000L321.700000,317.130000Z" fill="rgb(253,183,151)" stroke="none" stroke-width="1"/><path id="e1jyavsrlj6x131" d="M335.080000,189.440000C344.750000,192.920000,353.660000,199.600000,357.790000,209.010000C359.230000,212.280000,360.090000,215.860000,362.170000,218.770000C366.810000,225.250000,375.900000,226.470000,382.360000,231.140000C390.650000,237.140000,393.720000,248.410000,392.570000,258.570000C391.420000,268.730000,386.750000,278.120000,382.160000,287.260000C377.330000,296.870000,372.340000,306.700000,364.410000,313.960000C360.710000,317.350000,356.170000,320.500000,354.990000,325.380000C353.990000,329.570000,355.770000,333.940000,355.390000,338.240000C354.470000,348.850000,341.790000,353.790000,331.200000,354.970000C326.600000,355.480000,321.330000,355.510000,318.090000,352.200000C316.430000,350.500000,315.600000,348.200000,314.540000,346.060000C312.131000,341.186000,308.418000,337.076000,303.815000,334.183000C299.212000,331.291000,293.897000,329.730000,288.461000,329.674000C283.024000,329.619000,277.679000,331.070000,273.017000,333.866000C268.355000,336.663000,264.559000,340.697000,262.050000,345.520000C259.570000,350.300000,258.120000,356.090000,253.600000,359.010000C246.680000,363.480000,237.430000,358.230000,232.340000,351.770000C227.250000,345.310000,223.540000,337.190000,216.270000,333.320000C213.980000,332.100000,211.270000,331.320000,209.780000,329.200000C206.990000,325.440000,209.360000,319.850000,207.470000,315.570000C206.040000,312.350000,202.530000,310.570000,200.470000,307.730000C196.270000,301.870000,199.310000,293.730000,202.470000,287.280000L220.710000,249.580000C225.710000,239.140000,230.860000,228.580000,237.920000,219.420000C259.530000,191.240000,301.150000,177.220000,335.080000,189.440000Z" fill="rgb(143,90,106)" stroke="none" stroke-width="1"/><path id="e1jyavsrlj6x132" d="M288.520000,387.330000C288.520000,387.330000,238.740000,387.330000,225.980000,341.380000L184.080000,373.850000C181.188000,376.094000,178.783000,378.903000,177.011000,382.106000C175.239000,385.308000,174.136000,388.838000,173.770000,392.480000L169.770000,432.010000C169.770000,432.010000,165.300000,446.690000,170.410000,455.620000C170.410000,455.620000,223.410000,442.220000,224.660000,457.530000L187.680000,560.920000C187.680000,560.920000,245.120000,562.200000,260.430000,551.990000C260.430000,551.990000,322.970000,564.750000,338.290000,550.710000C353.610000,536.670000,368.920000,537.950000,356.160000,506.040000C356.160000,506.040000,381.690000,480.510000,370.160000,444.770000C358.630000,409.030000,369.520000,445.410000,369.520000,445.410000C369.520000,445.410000,394.410000,433.280000,393.130000,410.310000L390.580000,387.310000C390.580000,387.310000,390.440000,386.550000,390.090000,385.180000C382.310000,354.900000,361.400000,338.180000,332.010000,348.840000C323.420000,351.950000,314.640000,348.390000,314.640000,348.390000C314.640000,348.390000,324.250000,389.920000,288.520000,387.330000Z" opacity="0.1" fill="rgb(0,0,0)" stroke="none" stroke-width="1"/><path id="e1jyavsrlj6x133" d="M288.520000,384.780000C288.520000,384.780000,238.740000,384.780000,225.980000,338.830000L184.080000,371.300000C181.190000,373.543000,178.785000,376.350000,177.013000,379.551000C175.241000,382.752000,174.137000,386.280000,173.770000,389.920000L169.770000,429.450000C169.770000,429.450000,165.300000,444.130000,170.410000,453.060000C170.410000,453.060000,223.410000,439.660000,224.660000,454.970000L187.660000,558.360000C187.660000,558.360000,245.100000,559.640000,260.410000,549.430000C260.410000,549.430000,322.950000,562.190000,338.270000,548.150000C353.590000,534.110000,368.900000,535.390000,356.140000,503.480000C356.140000,503.480000,381.670000,477.950000,370.140000,442.210000C358.610000,406.470000,369.500000,442.850000,369.500000,442.850000C369.500000,442.850000,394.390000,430.720000,393.110000,407.750000L390.560000,384.750000C390.560000,384.750000,390.420000,383.990000,390.070000,382.620000C382.290000,352.340000,361.380000,335.620000,331.990000,346.280000C323.400000,349.390000,314.620000,345.830000,314.620000,345.830000C314.620000,345.830000,324.250000,387.330000,288.520000,384.780000Z" fill="rgb(180,81,129)" stroke="none" stroke-width="1"/><path id="e1jyavsrlj6x134" d="M170.450000,427.713965C170.450000,427.713965,172.945026,513.706204,175.449837,524.609435C177.954648,535.512667,214.166778,568.212872,232.894153,569.427505C232.894153,569.427505,252.873934,615.450718,275.358526,608.181898C297.843117,600.913077,300.338144,562.158684,289.056710,557.309640L214.127640,511.286427L214.127640,419.240000L170.450000,427.713965Z" fill="rgb(253,183,151)" stroke="none" stroke-width="1"/><path id="e1jyavsrlj6x135" d="M225.330000,431.360000C225.330000,431.360000,196,451.280000,170.450000,449.620000C170.450000,449.620000,167.900000,415.410000,175.560000,413.500000C183.220000,411.590000,216.400000,413.500000,225.330000,431.360000Z" opacity="0.1" fill="rgb(0,0,0)" stroke="none" stroke-width="1"/><path id="e1jyavsrlj6x136" d="M225.330000,430.090000C225.330000,430.090000,196,450.010000,170.450000,448.340000C170.450000,448.340000,167.900000,414.130000,175.560000,412.220000C183.220000,410.310000,216.400000,412.220000,225.330000,430.090000Z" fill="rgb(180,81,129)" stroke="none" stroke-width="1"/><path id="e1jyavsrlj6x137" d="M266.820000,312.020000L319.150000,319.680000C319.150000,319.680000,317.970000,331.200000,317.740000,344.430000C307.571000,348.717000,296.400000,350.053000,285.507000,348.284000C274.615000,346.515000,264.440000,341.714000,256.150000,334.430000C260.530000,329.030000,264.310000,321.770000,266.820000,312.020000Z" opacity="0.1" fill="rgb(0,0,0)" stroke="none" stroke-width="1"/><path id="e1jyavsrlj6x138" d="M297.450000,346.480000C329.875000,346.480000,356.160000,320.195000,356.160000,287.770000C356.160000,255.345000,329.875000,229.060000,297.450000,229.060000C265.025000,229.060000,238.740000,255.345000,238.740000,287.770000C238.740000,320.195000,265.025000,346.480000,297.450000,346.480000Z" fill="rgb(253,183,151)" stroke="none" stroke-width="1"/><path id="e1jyavsrlj6x139" d="M282,276.490000C284.420000,277.610000,287.180000,277.630000,289.850000,277.610000C300.237000,277.543000,310.613000,277.160000,320.980000,276.460000C328.840000,275.930000,337.220000,275.010000,343.280000,269.980000C351.440000,263.210000,352.730000,250.520000,348.520000,240.790000C344.310000,231.060000,335.720000,223.890000,326.650000,218.410000C321.519000,215.157000,315.958000,212.636000,310.130000,210.920000C293.300000,206.350000,274.690000,211.920000,261.320000,223.170000C247.950000,234.420000,239.430000,250.550000,234.920000,267.400000C233.360000,273.230000,231.360000,280.170000,225.590000,281.940000C229.430000,288.330000,238.800000,289.340000,245.540000,286.140000C255.460000,281.420000,260.540000,263.360000,269.450000,260.520000C279.360000,257.390000,273.580000,272.630000,282,276.490000Z" opacity="0.1" fill="rgb(0,0,0)" stroke="none" stroke-width="1"/><path id="e1jyavsrlj6x140" d="M282,275.210000C284.420000,276.330000,287.180000,276.350000,289.850000,276.330000C300.237000,276.263000,310.613000,275.880000,320.980000,275.180000C328.840000,274.650000,337.220000,273.730000,343.280000,268.700000C351.440000,261.930000,352.730000,249.240000,348.520000,239.510000C344.310000,229.780000,335.720000,222.610000,326.650000,217.130000C321.525000,213.897000,315.975000,211.393000,310.160000,209.690000C293.330000,205.120000,274.720000,210.690000,261.350000,221.940000C247.980000,233.190000,239.460000,249.320000,234.950000,266.170000C233.390000,272,231.390000,278.940000,225.620000,280.710000C229.460000,287.100000,238.830000,288.110000,245.570000,284.910000C255.490000,280.190000,260.570000,262.130000,269.480000,259.290000C279.360000,256.120000,273.580000,271.350000,282,275.210000Z" fill="rgb(143,90,106)" stroke="none" stroke-width="1"/><path id="e1jyavsrlj6x141" d="M356.800000,502.840000C337.650000,497.724000,317.911000,495.149000,298.090000,495.180000Z" opacity="0.1" fill="rgb(0,0,0)" stroke="none" stroke-width="1"/><path id="e1jyavsrlj6x142" d="M225.330000,433.920000C225.330000,433.920000,244.480000,447.920000,239.330000,455.620000Z" opacity="0.1" fill="rgb(0,0,0)" stroke="none" stroke-width="1"/><g id="e1jyavsrlj6x143" opacity="0.7"><path id="e1jyavsrlj6x144" d="M754.580000,578.640000L127.880000,578.640000L127.880000,633.430000L164.360000,633.430000L164.360000,644.130000L164.360000,805.840000L719.400000,805.840000L719.400000,644.130000L719.400000,633.430000L754.580000,633.430000L754.580000,578.640000Z" opacity="0.7" fill="url(#e1jyavsrlj6x144-fill)" stroke="none" stroke-width="1"/></g><path id="e1jyavsrlj6x145" d="M713.730000,610.550000L170,610.550000L170,805.840000L713.730000,805.840000L713.730000,610.550000Z" fill="rgb(224,224,224)" stroke="none" stroke-width="1"/><path id="e1jyavsrlj6x146" d="M713.730000,620.760000L170,620.760000L170,651.390000L713.730000,651.390000L713.730000,620.760000Z" opacity="0.1" fill="rgb(0,0,0)" stroke="none" stroke-width="1"/><path id="e1jyavsrlj6x147" d="M748.200000,588.850000L134.260000,588.850000L134.260000,641.180000L748.200000,641.180000L748.200000,588.850000Z" fill="rgb(224,224,224)" stroke="none" stroke-width="1"/><path id="e1jyavsrlj6x148" d="M361.190000,575.970000L256.760000,575.970000C253.170000,575.970000,250.260000,578.880000,250.260000,582.470000L250.260000,586.060000C250.260000,589.650000,253.170000,592.560000,256.760000,592.560000L361.190000,592.560000C364.780000,592.560000,367.690000,589.650000,367.690000,586.060000L367.690000,582.470000C367.690000,578.880000,364.780000,575.970000,361.190000,575.970000Z" fill="rgb(83,84,97)" stroke="none" stroke-width="1"/><g id="e1jyavsrlj6x149" opacity="0.7"><path id="e1jyavsrlj6x150" d="M585.360000,390.970000L349.950000,390.970000C334.365000,390.970000,321.730000,403.605000,321.730000,419.190000L321.730000,564.550000C321.730000,580.135000,334.365000,592.770000,349.950000,592.770000L585.360000,592.770000C600.945000,592.770000,613.580000,580.135000,613.580000,564.550000L613.580000,419.190000C613.580000,403.605000,600.945000,390.970000,585.360000,390.970000Z" opacity="0.7" fill="url(#e1jyavsrlj6x150-fill)" stroke="none" stroke-width="1"/></g><path id="e1jyavsrlj6x151" d="M576.570000,394.700000L353.780000,394.700000C338.957000,394.700000,326.940000,406.717000,326.940000,421.540000L326.940000,565.930000C326.940000,580.753000,338.957000,592.770000,353.780000,592.770000L576.570000,592.770000C591.393000,592.770000,603.410000,580.753000,603.410000,565.930000L603.410000,421.540000C603.410000,406.717000,591.393000,394.700000,576.570000,394.700000Z" fill="rgb(62,63,73)" stroke="none" stroke-width="1"/><path id="e1jyavsrlj6x152" d="M580.400000,394.700000L357.610000,394.700000C342.787000,394.700000,330.770000,406.717000,330.770000,421.540000L330.770000,565.930000C330.770000,580.753000,342.787000,592.770000,357.610000,592.770000L580.400000,592.770000C595.223000,592.770000,607.240000,580.753000,607.240000,565.930000L607.240000,421.540000C607.240000,406.717000,595.223000,394.700000,580.400000,394.700000Z" fill="rgb(83,84,97)" stroke="none" stroke-width="1"/><path id="e1jyavsrlj6x153" d="M481.920000,501.300000C486.852000,501.300000,490.850000,497.302000,490.850000,492.370000C490.850000,487.438000,486.852000,483.440000,481.920000,483.440000C476.988000,483.440000,472.990000,487.438000,472.990000,492.370000C472.990000,497.302000,476.988000,501.300000,481.920000,501.300000Z" fill="rgb(224,224,224)" stroke="none" stroke-width="1"/></g><clipPath id="e1jyavsrlj6x154"><rect id="e1jyavsrlj6x155" width="1050" height="805.830000" rx="0" ry="0" fill="rgb(255,255,255)" stroke="none" stroke-width="1"/></clipPath></g></svg>